<?xml version="1.0" encoding="UTF-8" standalone="no"?>
<!-- Created with Inkscape (http://www.inkscape.org/) -->

<svg
   xmlns:dc="http://purl.org/dc/elements/1.1/"
   xmlns:cc="http://creativecommons.org/ns#"
   xmlns:rdf="http://www.w3.org/1999/02/22-rdf-syntax-ns#"
   xmlns:svg="http://www.w3.org/2000/svg"
   xmlns="http://www.w3.org/2000/svg"
   xmlns:xlink="http://www.w3.org/1999/xlink"
   xmlns:sodipodi="http://sodipodi.sourceforge.net/DTD/sodipodi-0.dtd"
   xmlns:inkscape="http://www.inkscape.org/namespaces/inkscape"
   width="154.97502mm"
   height="123.21571mm"
   viewBox="0 0 154.97502 123.21571"
   version="1.1"
   id="svg8"
   sodipodi:docname="tensorflow_model.svg"
   inkscape:version="0.92.2 5c3e80d, 2017-08-06">
  <defs
     id="defs2">
    <linearGradient
       inkscape:collect="always"
       id="linearGradient7168">
      <stop
         style="stop-color:#000080;stop-opacity:1;"
         offset="0"
         id="stop7164" />
      <stop
         style="stop-color:#000080;stop-opacity:0;"
         offset="1"
         id="stop7166" />
    </linearGradient>
    <symbol
       id="Process">
      <title
         id="title828">Process</title>
      <desc
         id="desc830">Any processing function.</desc>
      <rect
         x="3.96875"
         y="9.260417"
         width="31.75"
         height="21.166666"
         style="stroke-width:0.52916664"
         id="rect832" />
    </symbol>
    <linearGradient
       inkscape:collect="always"
       xlink:href="#linearGradient7168"
       id="linearGradient7162"
       x1="109.79625"
       y1="139.83749"
       x2="120.92042"
       y2="139.83749"
       gradientUnits="userSpaceOnUse" />
    <linearGradient
       inkscape:collect="always"
       xlink:href="#linearGradient7168"
       id="linearGradient7170"
       x1="109.53167"
       y1="109.41042"
       x2="120.65584"
       y2="109.41042"
       gradientUnits="userSpaceOnUse" />
    <linearGradient
       gradientTransform="translate(14.022915,38.099911)"
       inkscape:collect="always"
       xlink:href="#linearGradient7168"
       id="linearGradient7162-3"
       x1="109.79625"
       y1="139.83749"
       x2="120.92042"
       y2="139.83749"
       gradientUnits="userSpaceOnUse" />
    <symbol
       id="DownArrow">
      <title
         id="title2702">Down Arrow</title>
      <path
         inkscape:connector-curvature="0"
         d="M 9.525,16.66875 3.7041667,10.847917 V 6.8791667 L 7.9375,11.1125 V 2.6458333 h 3.175 V 11.1125 l 4.233333,-4.2333333 v 3.9687503 z"
         style="stroke:none;stroke-width:0.26458332"
         id="path2704" />
    </symbol>
  </defs>
  <sodipodi:namedview
     id="base"
     pagecolor="#ffffff"
     bordercolor="#666666"
     borderopacity="1.0"
     inkscape:pageopacity="0.0"
     inkscape:pageshadow="2"
     inkscape:zoom="0.79020694"
     inkscape:cx="441.93317"
     inkscape:cy="163.9384"
     inkscape:document-units="mm"
     inkscape:current-layer="layer1"
     showgrid="false"
     inkscape:object-nodes="false"
     inkscape:object-paths="true"
     inkscape:window-width="1680"
     inkscape:window-height="1005"
     inkscape:window-x="1702"
     inkscape:window-y="86"
     inkscape:window-maximized="0"
     showguides="true" />
  <metadata
     id="metadata5">
    <rdf:RDF>
      <cc:Work
         rdf:about="">
        <dc:format>image/svg+xml</dc:format>
        <dc:type
           rdf:resource="http://purl.org/dc/dcmitype/StillImage" />
        <dc:title />
      </cc:Work>
    </rdf:RDF>
  </metadata>
  <g
     inkscape:label="Layer 1"
     inkscape:groupmode="layer"
     id="layer1"
     transform="translate(-10.299113,-91.590548)">
    <path
       style="fill:#cccccc;fill-opacity:1;stroke:#000000;stroke-width:0.26499999;stroke-linecap:butt;stroke-linejoin:miter;stroke-miterlimit:4;stroke-dasharray:0.26499999, 0.26499999;stroke-dashoffset:0;stroke-opacity:1"
       d="m 20.370025,119.5819 v 18.41716 h 4.714807 v -18.17432 h -4.714807 z"
       id="path5132"
       inkscape:connector-curvature="0" />
    <path
       style="fill:#cccccc;fill-opacity:1;stroke:#000000;stroke-width:0.26499999;stroke-linecap:butt;stroke-linejoin:miter;stroke-miterlimit:4;stroke-dasharray:0.26499999, 0.26499999;stroke-dashoffset:0;stroke-opacity:1"
       d="m 52.16558,119.8799 v 18.41716 h 4.714808 V 120.12274 H 52.16558 Z"
       id="path5132-2"
       inkscape:connector-curvature="0" />
    <path
       style="fill:#cccccc;fill-opacity:1;stroke:#000000;stroke-width:0.26499999;stroke-linecap:butt;stroke-linejoin:miter;stroke-miterlimit:4;stroke-dasharray:0.26499999, 0.26499999;stroke-dashoffset:0;stroke-opacity:1"
       d="m 25.084832,137.45626 23.069334,-21.16667 4.011414,4.23333 -22.00308,20.6375 z"
       id="path5164"
       inkscape:connector-curvature="0" />
    <path
       style="fill:#cccccc;fill-opacity:1;stroke:#000000;stroke-width:0.26499999;stroke-linecap:butt;stroke-linejoin:miter;stroke-miterlimit:4;stroke-dasharray:0.26499999, 0.26499999;stroke-dashoffset:0;stroke-opacity:1"
       d="M 47.892519,142.16554 25.835402,119.94605 29.90778,115.77133 51.394224,136.9462 Z"
       id="path5164-8"
       inkscape:connector-curvature="0" />
    <use
       id="use5041"
       transform="matrix(0.48400269,0,0,0.58314688,13.676791,102.08128)"
       style="fill:#ffffff;stroke:#000000"
       xlink:href="#Process"
       x="0"
       y="0"
       width="100%"
       height="100%" />
    <use
       id="use5041-7"
       transform="matrix(0.48400269,0,0,0.58314688,46.254903,102.08128)"
       style="fill:#ffffff;stroke:#000000"
       xlink:href="#Process"
       x="0"
       y="0"
       width="100%"
       height="100%" />
    <path
       style="fill:#cccccc;fill-opacity:1;stroke:#000000;stroke-width:0.25804573;stroke-linecap:butt;stroke-linejoin:miter;stroke-miterlimit:4;stroke-dasharray:0.25804574, 0.25804574;stroke-dashoffset:0;stroke-opacity:1"
       d="M 32.548735,184.76911 18.709217,151.19043 21.26439,144.88148 34.745846,176.8815 Z"
       id="path5164-8-3"
       inkscape:connector-curvature="0" />
    <path
       style="fill:#cccccc;fill-opacity:1;stroke:#000000;stroke-width:0.25804573;stroke-linecap:butt;stroke-linejoin:miter;stroke-miterlimit:4;stroke-dasharray:0.25804574, 0.25804574;stroke-dashoffset:0;stroke-opacity:1"
       d="m 40.479367,185.41687 13.839518,-33.57868 -2.555173,-6.30895 -13.481456,32.00002 z"
       id="path5164-8-3-9"
       inkscape:connector-curvature="0" />
    <path
       style="fill:#cccccc;fill-opacity:1;stroke:#000000;stroke-width:0.26499999;stroke-linecap:butt;stroke-linejoin:miter;stroke-miterlimit:4;stroke-dasharray:0.26499999, 0.26499999;stroke-dashoffset:0;stroke-opacity:1"
       d="M 34.948846,185.06684 V 203.484 h 4.714808 v -18.17432 h -4.714808 z"
       id="path5132-2-0"
       inkscape:connector-curvature="0" />
    <use
       id="use5041-7-9-3-8"
       transform="matrix(0.48400269,0,0,0.58314688,27.546036,169.96775)"
       style="fill:#ffffff;stroke:#000000"
       xlink:href="#Process"
       x="0"
       y="0"
       width="100%"
       height="100%" />
    <use
       id="use5041-7-9-3-8-0"
       transform="matrix(0.48400269,0,0,0.58314688,27.278767,196.6947)"
       style="fill:#ffffff;stroke:#000000"
       xlink:href="#Process"
       x="0"
       y="0"
       width="100%"
       height="100%" />
    <use
       id="use5041-7-9"
       transform="matrix(0.48400269,0,0,0.58314688,13.113481,132.90748)"
       style="fill:#ffffff;stroke:#000000"
       xlink:href="#Process"
       x="0"
       y="0"
       width="100%"
       height="100%" />
    <use
       id="use5041-7-9-3"
       transform="matrix(0.48400269,0,0,0.58314688,45.453094,132.90748)"
       style="fill:#ffffff;stroke:#000000"
       xlink:href="#Process"
       x="0"
       y="0"
       width="100%"
       height="100%" />
    <text
       xml:space="preserve"
       style="font-style:normal;font-weight:normal;font-size:10.58333302px;line-height:1.25;font-family:sans-serif;letter-spacing:0px;word-spacing:0px;fill:#000000;fill-opacity:1;stroke:none;stroke-width:0.26458332"
       x="18.25625"
       y="118.14168"
       id="text5228"><tspan
         sodipodi:role="line"
         id="tspan5226"
         x="18.25625"
         y="118.14168"
         style="font-size:5.29166651px;stroke-width:0.26458332">red</tspan></text>
    <text
       xml:space="preserve"
       style="font-style:normal;font-weight:normal;font-size:10.58333302px;line-height:1.25;font-family:sans-serif;letter-spacing:0px;word-spacing:0px;fill:#000000;fill-opacity:1;stroke:none;stroke-width:0.26458332"
       x="51.216511"
       y="117.99775"
       id="text5228-5"><tspan
         sodipodi:role="line"
         id="tspan5226-2"
         x="51.216511"
         y="117.99775"
         style="font-size:5.29166651px;stroke-width:0.26458332">blue</tspan></text>
    <text
       xml:space="preserve"
       style="font-style:normal;font-weight:normal;font-size:10.58333302px;line-height:1.25;font-family:sans-serif;letter-spacing:0px;word-spacing:0px;fill:#000000;fill-opacity:1;stroke:none;stroke-width:0.26458332"
       x="14.968595"
       y="148.16025"
       id="text5228-5-2"><tspan
         sodipodi:role="line"
         id="tspan5226-2-7"
         x="14.968595"
         y="148.16025"
         style="font-size:5.29166651px;stroke-width:0.26458332">green</tspan></text>
    <text
       xml:space="preserve"
       style="font-style:normal;font-weight:normal;font-size:10.58333302px;line-height:1.25;font-family:sans-serif;letter-spacing:0px;word-spacing:0px;fill:#000000;fill-opacity:1;stroke:none;stroke-width:0.26458332"
       x="49.893593"
       y="148.68942"
       id="text5228-5-2-3"><tspan
         sodipodi:role="line"
         id="tspan5226-2-7-7"
         x="49.893593"
         y="148.68942"
         style="font-size:5.29166651px;stroke-width:0.26458332">pink</tspan></text>
    <text
       xml:space="preserve"
       style="font-style:normal;font-weight:normal;font-size:10.58333302px;line-height:1.25;font-family:sans-serif;letter-spacing:0px;word-spacing:0px;fill:#000000;fill-opacity:1;stroke:none;stroke-width:0.26458332"
       x="28.734718"
       y="185.56281"
       id="text5228-5-2-3-9"><tspan
         sodipodi:role="line"
         id="tspan5226-2-7-7-0"
         x="28.734718"
         y="185.56281"
         style="font-size:5.29166651px;stroke-width:0.26458332">purble</tspan></text>
    <text
       xml:space="preserve"
       style="font-style:normal;font-weight:normal;font-size:10.58333302px;line-height:1.25;font-family:sans-serif;letter-spacing:0px;word-spacing:0px;fill:#000000;fill-opacity:1;stroke:none;stroke-width:0.26458332"
       x="30.186031"
       y="211.53735"
       id="text5228-5-2-3-9-2"><tspan
         sodipodi:role="line"
         id="tspan5226-2-7-7-0-3"
         x="30.186031"
         y="211.53735"
         style="font-size:5.29166651px;stroke-width:0.26458332">print</tspan></text>
    <path
       style="fill:#cccccc;fill-opacity:1;stroke:#000000;stroke-width:0.26499999;stroke-linecap:butt;stroke-linejoin:miter;stroke-miterlimit:4;stroke-dasharray:0.26499999, 0.26499999;stroke-dashoffset:0;stroke-opacity:1"
       d="m 112.60474,119.79571 v 18.41716 h 4.71481 v -18.17432 h -4.71481 z"
       id="path5132-9"
       inkscape:connector-curvature="0" />
    <path
       style="fill:#cccccc;fill-opacity:1;stroke:#000000;stroke-width:0.26499999;stroke-linecap:butt;stroke-linejoin:miter;stroke-miterlimit:4;stroke-dasharray:0.26499999, 0.26499999;stroke-dashoffset:0;stroke-opacity:1"
       d="m 144.40029,120.09371 v 18.41716 h 4.71481 v -18.17432 h -4.71481 z"
       id="path5132-2-9"
       inkscape:connector-curvature="0" />
    <path
       style="fill:#cccccc;fill-opacity:1;stroke:#000000;stroke-width:0.26499999;stroke-linecap:butt;stroke-linejoin:miter;stroke-miterlimit:4;stroke-dasharray:0.26499999, 0.26499999;stroke-dashoffset:0;stroke-opacity:1"
       d="m 117.31955,137.67007 23.06933,-21.16667 4.01141,4.23333 -22.00308,20.6375 z"
       id="path5164-7"
       inkscape:connector-curvature="0" />
    <path
       style="fill:#cccccc;fill-opacity:1;stroke:#000000;stroke-width:0.26499999;stroke-linecap:butt;stroke-linejoin:miter;stroke-miterlimit:4;stroke-dasharray:0.26499999, 0.26499999;stroke-dashoffset:0;stroke-opacity:1"
       d="m 140.12723,142.37935 -22.05711,-22.21949 4.07237,-4.17472 21.48645,21.17487 z"
       id="path5164-8-0"
       inkscape:connector-curvature="0" />
    <use
       id="use5041-3"
       transform="matrix(0.48400269,0,0,0.58314688,105.9115,102.29509)"
       style="fill:#ffffff;stroke:#000000"
       xlink:href="#Process"
       x="0"
       y="0"
       width="100%"
       height="100%" />
    <use
       id="use5041-7-98"
       transform="matrix(0.48400269,0,0,0.58314688,138.48962,102.29509)"
       style="fill:#ffffff;stroke:#000000"
       xlink:href="#Process"
       x="0"
       y="0"
       width="100%"
       height="100%" />
    <path
       style="fill:#cccccc;fill-opacity:1;stroke:#000000;stroke-width:0.25804573;stroke-linecap:butt;stroke-linejoin:miter;stroke-miterlimit:4;stroke-dasharray:0.25804574, 0.25804574;stroke-dashoffset:0;stroke-opacity:1"
       d="m 124.78345,184.98292 -13.83952,-33.57868 2.55517,-6.30895 13.48146,32.00002 z"
       id="path5164-8-3-6"
       inkscape:connector-curvature="0" />
    <path
       style="fill:#cccccc;fill-opacity:1;stroke:#000000;stroke-width:0.25804573;stroke-linecap:butt;stroke-linejoin:miter;stroke-miterlimit:4;stroke-dasharray:0.25804574, 0.25804574;stroke-dashoffset:0;stroke-opacity:1"
       d="m 132.71408,185.63068 13.83952,-33.57868 -2.55517,-6.30895 -13.48146,32.00002 z"
       id="path5164-8-3-9-5"
       inkscape:connector-curvature="0" />
    <path
       style="fill:#cccccc;fill-opacity:1;stroke:#000000;stroke-width:0.26499999;stroke-linecap:butt;stroke-linejoin:miter;stroke-miterlimit:4;stroke-dasharray:0.26499999, 0.26499999;stroke-dashoffset:0;stroke-opacity:1"
       d="m 127.18356,185.28065 v 18.41716 h 4.71481 v -18.17432 h -4.71481 z"
       id="path5132-2-0-7"
       inkscape:connector-curvature="0" />
    <use
       id="use5041-7-9-3-8-6"
       transform="matrix(0.48400269,0,0,0.58314688,119.78075,170.18156)"
       style="fill:#ffffff;stroke:#000000"
       xlink:href="#Process"
       x="0"
       y="0"
       width="100%"
       height="100%" />
    <use
       id="use5041-7-9-3-8-0-2"
       transform="matrix(0.48400269,0,0,0.58314688,119.51348,196.90851)"
       style="fill:#ffffff;stroke:#000000"
       xlink:href="#Process"
       x="0"
       y="0"
       width="100%"
       height="100%" />
    <use
       id="use5041-7-9-7"
       transform="matrix(0.48400269,0,0,0.58314688,105.34819,133.12129)"
       style="fill:#ffffff;stroke:#000000"
       xlink:href="#Process"
       x="0"
       y="0"
       width="100%"
       height="100%" />
    <use
       id="use5041-7-9-3-0"
       transform="matrix(0.48400269,0,0,0.58314688,137.68781,133.12129)"
       style="fill:#ffffff;stroke:#000000"
       xlink:href="#Process"
       x="0"
       y="0"
       width="100%"
       height="100%" />
    <path
       id="path4805-4-7-3"
       d="m 152.93299,142.82645 c -0.41529,-0.0511 -0.81321,-0.22368 -1.1184,-0.48782 -0.27236,-0.23645 -0.66061,-0.24071 -0.93103,0 -0.73209,0.64758 -2.07069,0.64758 -2.81436,-0.0319 -0.26077,-0.23858 -0.63743,-0.19385 -0.90207,0.0384 -0.73401,0.64118 -2.06489,0.63906 -2.80469,-0.0362 -0.26077,-0.23858 -0.64323,-0.18958 -0.90979,0.0426 -0.2994,0.25988 -0.69538,0.42817 -1.11454,0.47716 -0.1526,0.017 -0.2627,0.16615 -0.2627,0.33444 v 0.68591 c 0,0.19386 0.1468,0.35788 0.32258,0.34083 0.5563,-0.0533 1.08363,-0.24284 1.5337,-0.55171 1.09136,0.73704 2.64631,0.72639 3.70869,0 1.09136,0.73704 2.64631,0.72639 3.70869,0 0.45007,0.30248 0.98319,0.49633 1.52791,0.54959 0.17577,0.017 0.32257,-0.14699 0.32257,-0.34083 v -0.67314 c 0.002,-0.17042 -0.1101,-0.32805 -0.26656,-0.34722 z m 0,-3.06747 c -0.41529,-0.0511 -0.81321,-0.22367 -1.1184,-0.48781 -0.27236,-0.23645 -0.66061,-0.24071 -0.93103,0 -0.73209,0.64757 -2.07069,0.64757 -2.81436,-0.0319 -0.26077,-0.23858 -0.63743,-0.19385 -0.90207,0.0384 -0.73401,0.64119 -2.06489,0.63906 -2.80469,-0.0362 -0.26077,-0.23858 -0.64323,-0.18959 -0.90979,0.0426 -0.2994,0.25988 -0.69538,0.42816 -1.11454,0.47716 -0.1526,0.017 -0.2627,0.16615 -0.2627,0.33443 v 0.68592 c 0,0.19385 0.1468,0.35787 0.32258,0.34083 0.5563,-0.0533 1.08363,-0.24284 1.5337,-0.55171 1.09136,0.73704 2.64631,0.72639 3.70869,0 1.09136,0.73704 2.64631,0.72639 3.70869,0 0.45007,0.30248 0.98319,0.49633 1.52791,0.54958 0.17577,0.017 0.32257,-0.14698 0.32257,-0.34082 v -0.67315 c 0.002,-0.17041 -0.1101,-0.32805 -0.26656,-0.34722 z m 0,-3.06746 c -0.41529,-0.0533 -0.81321,-0.22367 -1.1184,-0.48782 -0.27236,-0.23645 -0.66061,-0.24071 -0.93103,0 -0.73209,0.64758 -2.07069,0.64758 -2.81436,-0.0319 -0.26077,-0.23858 -0.63743,-0.19385 -0.90207,0.0384 -0.73401,0.64118 -2.06489,0.63906 -2.80469,-0.0362 -0.26077,-0.23857 -0.64323,-0.18958 -0.90979,0.0426 -0.2994,0.25988 -0.69538,0.42817 -1.11454,0.47716 -0.1526,0.017 -0.2627,0.16615 -0.2627,0.33444 v 0.68591 c 0,0.19386 0.1468,0.35788 0.32258,0.34084 0.5563,-0.0533 1.08363,-0.24285 1.5337,-0.55172 1.09136,0.73704 2.64631,0.72639 3.70869,0 1.09136,0.73704 2.64631,0.72639 3.70869,0 0.45007,0.30248 0.98319,0.49633 1.52791,0.54958 0.17577,0.017 0.32257,-0.14698 0.32257,-0.34082 v -0.67314 c 0.002,-0.17042 -0.1101,-0.32805 -0.26656,-0.34722 z"
       inkscape:connector-curvature="0"
       style="fill:#ff00ff;stroke:none;stroke-width:0.02028469;stroke-opacity:1" />
    <text
       xml:space="preserve"
       style="font-style:normal;font-weight:normal;font-size:10.58333302px;line-height:1.25;font-family:sans-serif;letter-spacing:0px;word-spacing:0px;fill:#000000;fill-opacity:1;stroke:none;stroke-width:0.26458332"
       x="110.49097"
       y="118.35548"
       id="text5228-3"><tspan
         sodipodi:role="line"
         id="tspan5226-9"
         x="110.49097"
         y="118.35548"
         style="font-size:5.29166651px;stroke-width:0.26458332">red</tspan></text>
    <text
       xml:space="preserve"
       style="font-style:normal;font-weight:normal;font-size:10.58333302px;line-height:1.25;font-family:sans-serif;letter-spacing:0px;word-spacing:0px;fill:#000000;fill-opacity:1;stroke:none;stroke-width:0.26458332"
       x="143.45122"
       y="118.21156"
       id="text5228-5-9"><tspan
         sodipodi:role="line"
         id="tspan5226-2-9"
         x="143.45122"
         y="118.21156"
         style="font-size:5.29166651px;stroke-width:0.26458332">blue</tspan></text>
    <text
       xml:space="preserve"
       style="font-style:normal;font-weight:normal;font-size:10.58333302px;line-height:1.25;font-family:sans-serif;letter-spacing:0px;word-spacing:0px;fill:#000000;fill-opacity:1;stroke:none;stroke-width:0.26458332"
       x="107.20331"
       y="148.37407"
       id="text5228-5-2-1"><tspan
         sodipodi:role="line"
         id="tspan5226-2-7-72"
         x="107.20331"
         y="148.37407"
         style="font-size:5.29166651px;stroke-width:0.26458332">green</tspan></text>
    <text
       xml:space="preserve"
       style="font-style:normal;font-weight:normal;font-size:10.58333302px;line-height:1.25;font-family:sans-serif;letter-spacing:0px;word-spacing:0px;fill:#000000;fill-opacity:1;stroke:none;stroke-width:0.26458332"
       x="142.12831"
       y="148.90324"
       id="text5228-5-2-3-3"><tspan
         sodipodi:role="line"
         id="tspan5226-2-7-7-6"
         x="142.12831"
         y="148.90324"
         style="font-size:5.29166651px;stroke-width:0.26458332">pink</tspan></text>
    <text
       xml:space="preserve"
       style="font-style:normal;font-weight:normal;font-size:10.58333302px;line-height:1.25;font-family:sans-serif;letter-spacing:0px;word-spacing:0px;fill:#000000;fill-opacity:1;stroke:none;stroke-width:0.26458332"
       x="120.96943"
       y="185.77663"
       id="text5228-5-2-3-9-5"><tspan
         sodipodi:role="line"
         id="tspan5226-2-7-7-0-5"
         x="120.96943"
         y="185.77663"
         style="font-size:5.29166651px;stroke-width:0.26458332">purble</tspan></text>
    <text
       xml:space="preserve"
       style="font-style:normal;font-weight:normal;font-size:10.58333302px;line-height:1.25;font-family:sans-serif;letter-spacing:0px;word-spacing:0px;fill:#000000;fill-opacity:1;stroke:none;stroke-width:0.26458332"
       x="122.42075"
       y="211.75117"
       id="text5228-5-2-3-9-2-8"><tspan
         sodipodi:role="line"
         id="tspan5226-2-7-7-0-3-1"
         x="122.42075"
         y="211.75117"
         style="font-size:5.29166651px;stroke-width:0.26458332">print</tspan></text>
    <path
       id="path4805-4"
       d="m 120.38925,112.13479 c -0.41529,-0.0511 -0.81321,-0.22368 -1.1184,-0.48782 -0.27236,-0.23645 -0.66061,-0.24071 -0.93103,0 -0.73209,0.64758 -2.07069,0.64758 -2.81436,-0.0319 -0.26077,-0.23858 -0.63743,-0.19385 -0.90207,0.0384 -0.73401,0.64118 -2.06489,0.63906 -2.80469,-0.0362 -0.26077,-0.23858 -0.64323,-0.18958 -0.90979,0.0426 -0.2994,0.25988 -0.69538,0.42817 -1.11454,0.47716 -0.1526,0.017 -0.2627,0.16615 -0.2627,0.33444 v 0.68591 c 0,0.19386 0.1468,0.35788 0.32258,0.34083 0.5563,-0.0533 1.08363,-0.24284 1.5337,-0.55171 1.09136,0.73704 2.64631,0.72639 3.70869,0 1.09136,0.73704 2.64631,0.72639 3.70869,0 0.45007,0.30248 0.98319,0.49633 1.52791,0.54959 0.17577,0.017 0.32257,-0.14699 0.32257,-0.34083 v -0.67314 c 0.002,-0.17042 -0.1101,-0.32805 -0.26656,-0.34722 z m 0,-3.06747 c -0.41529,-0.0511 -0.81321,-0.22367 -1.1184,-0.48781 -0.27236,-0.23645 -0.66061,-0.24071 -0.93103,0 -0.73209,0.64757 -2.07069,0.64757 -2.81436,-0.0319 -0.26077,-0.23858 -0.63743,-0.19385 -0.90207,0.0384 -0.73401,0.64119 -2.06489,0.63906 -2.80469,-0.0362 -0.26077,-0.23858 -0.64323,-0.18959 -0.90979,0.0426 -0.2994,0.25988 -0.69538,0.42816 -1.11454,0.47716 -0.1526,0.017 -0.2627,0.16615 -0.2627,0.33443 v 0.68592 c 0,0.19385 0.1468,0.35787 0.32258,0.34083 0.5563,-0.0533 1.08363,-0.24284 1.5337,-0.55171 1.09136,0.73704 2.64631,0.72639 3.70869,0 1.09136,0.73704 2.64631,0.72639 3.70869,0 0.45007,0.30248 0.98319,0.49633 1.52791,0.54958 0.17577,0.017 0.32257,-0.14698 0.32257,-0.34082 v -0.67315 c 0.002,-0.17041 -0.1101,-0.32805 -0.26656,-0.34722 z m 0,-3.06746 c -0.41529,-0.0533 -0.81321,-0.22367 -1.1184,-0.48782 -0.27236,-0.23645 -0.66061,-0.24071 -0.93103,0 -0.73209,0.64758 -2.07069,0.64758 -2.81436,-0.0319 -0.26077,-0.23858 -0.63743,-0.19385 -0.90207,0.0384 -0.73401,0.64118 -2.06489,0.63906 -2.80469,-0.0362 -0.26077,-0.23857 -0.64323,-0.18958 -0.90979,0.0426 -0.2994,0.25988 -0.69538,0.42817 -1.11454,0.47716 -0.1526,0.017 -0.2627,0.16615 -0.2627,0.33444 v 0.68591 c 0,0.19386 0.1468,0.35788 0.32258,0.34084 0.5563,-0.0533 1.08363,-0.24285 1.5337,-0.55172 1.09136,0.73704 2.64631,0.72639 3.70869,0 1.09136,0.73704 2.64631,0.72639 3.70869,0 0.45007,0.30248 0.98319,0.49633 1.52791,0.54958 0.17577,0.017 0.32257,-0.14698 0.32257,-0.34082 v -0.67314 c 0.002,-0.17042 -0.1101,-0.32805 -0.26656,-0.34722 z"
       inkscape:connector-curvature="0"
       style="fill:#d40000;stroke:url(#linearGradient7170);stroke-width:0.02028469" />
    <path
       id="path4805-4-7"
       d="m 152.933,112.39937 c -0.41529,-0.0511 -0.81321,-0.22368 -1.1184,-0.48782 -0.27236,-0.23645 -0.66061,-0.24071 -0.93103,0 -0.73209,0.64758 -2.07069,0.64758 -2.81436,-0.0319 -0.26077,-0.23858 -0.63743,-0.19385 -0.90207,0.0384 -0.73401,0.64118 -2.06489,0.63906 -2.80469,-0.0362 -0.26077,-0.23858 -0.64323,-0.18958 -0.90979,0.0426 -0.2994,0.25988 -0.69538,0.42817 -1.11454,0.47716 -0.1526,0.017 -0.2627,0.16615 -0.2627,0.33444 v 0.68591 c 0,0.19386 0.1468,0.35788 0.32258,0.34083 0.5563,-0.0533 1.08363,-0.24284 1.5337,-0.55171 1.09136,0.73704 2.64631,0.72639 3.70869,0 1.09136,0.73704 2.64631,0.72639 3.70869,0 0.45007,0.30248 0.98319,0.49633 1.52791,0.54959 0.17577,0.017 0.32257,-0.14699 0.32257,-0.34083 v -0.67314 c 0.002,-0.17042 -0.1101,-0.32805 -0.26656,-0.34722 z m 0,-3.06747 c -0.41529,-0.0511 -0.81321,-0.22367 -1.1184,-0.48781 -0.27236,-0.23645 -0.66061,-0.24071 -0.93103,0 -0.73209,0.64757 -2.07069,0.64757 -2.81436,-0.0319 -0.26077,-0.23858 -0.63743,-0.19385 -0.90207,0.0384 -0.73401,0.64119 -2.06489,0.63906 -2.80469,-0.0362 -0.26077,-0.23858 -0.64323,-0.18959 -0.90979,0.0426 -0.2994,0.25988 -0.69538,0.42816 -1.11454,0.47716 -0.1526,0.017 -0.2627,0.16615 -0.2627,0.33443 v 0.68592 c 0,0.19385 0.1468,0.35787 0.32258,0.34083 0.5563,-0.0533 1.08363,-0.24284 1.5337,-0.55171 1.09136,0.73704 2.64631,0.72639 3.70869,0 1.09136,0.73704 2.64631,0.72639 3.70869,0 0.45007,0.30248 0.98319,0.49633 1.52791,0.54958 0.17577,0.017 0.32257,-0.14698 0.32257,-0.34082 v -0.67315 c 0.002,-0.17041 -0.1101,-0.32805 -0.26656,-0.34722 z m 0,-3.06746 c -0.41529,-0.0533 -0.81321,-0.22367 -1.1184,-0.48782 -0.27236,-0.23645 -0.66061,-0.24071 -0.93103,0 -0.73209,0.64758 -2.07069,0.64758 -2.81436,-0.0319 -0.26077,-0.23858 -0.63743,-0.19385 -0.90207,0.0384 -0.73401,0.64118 -2.06489,0.63906 -2.80469,-0.0362 -0.26077,-0.23857 -0.64323,-0.18958 -0.90979,0.0426 -0.2994,0.25988 -0.69538,0.42817 -1.11454,0.47716 -0.1526,0.017 -0.2627,0.16615 -0.2627,0.33444 v 0.68591 c 0,0.19386 0.1468,0.35788 0.32258,0.34084 0.5563,-0.0533 1.08363,-0.24285 1.5337,-0.55172 1.09136,0.73704 2.64631,0.72639 3.70869,0 1.09136,0.73704 2.64631,0.72639 3.70869,0 0.45007,0.30248 0.98319,0.49633 1.52791,0.54958 0.17577,0.017 0.32257,-0.14698 0.32257,-0.34082 v -0.67314 c 0.002,-0.17042 -0.1101,-0.32805 -0.26656,-0.34722 z"
       inkscape:connector-curvature="0"
       style="fill:#0000ff;stroke-width:0.02028469" />
    <path
       id="path4855-6"
       d="m 114.9662,123.22989 c -0.10913,-0.35057 -0.67953,-0.36689 -0.80323,0 -0.64284,1.92169 -2.01743,2.44389 -2.01743,3.79831 0,1.1991 1.08197,2.16932 2.41904,2.16932 1.33708,0 2.41905,-0.97022 2.41905,-2.16932 0,-1.36124 -1.37157,-1.86785 -2.01743,-3.79831 z m -0.40162,5.18804 c -0.84872,0 -1.53939,-0.61209 -1.53939,-1.36428 0,-0.10768 0.0984,-0.19489 0.21991,-0.19489 0.1215,0 0.21992,0.0872 0.21992,0.19489 0,0.53731 0.49329,0.97449 1.09956,0.97449 0.12151,0 0.21992,0.0872 0.21992,0.1949 0,0.10768 -0.0984,0.19489 -0.21992,0.19489 z"
       inkscape:connector-curvature="0"
       style="fill:#d40000;stroke-width:0.01293923" />
    <path
       id="path4855-6-0"
       d="m 146.98078,124.28823 c -0.10913,-0.35057 -0.67953,-0.36689 -0.80323,0 -0.64284,1.92169 -2.01743,2.44389 -2.01743,3.79831 0,1.1991 1.08197,2.16932 2.41904,2.16932 1.33708,0 2.41905,-0.97022 2.41905,-2.16932 0,-1.36124 -1.37157,-1.86785 -2.01743,-3.79831 z m -0.40162,5.18804 c -0.84872,0 -1.53939,-0.61209 -1.53939,-1.36428 0,-0.10768 0.0984,-0.19489 0.21991,-0.19489 0.1215,0 0.21992,0.0872 0.21992,0.19489 0,0.53731 0.49329,0.97449 1.09956,0.97449 0.12151,0 0.21992,0.0872 0.21992,0.1949 0,0.10768 -0.0984,0.19489 -0.21992,0.19489 z"
       inkscape:connector-curvature="0"
       style="fill:#0000ff;stroke-width:0.01293923" />
    <path
       id="path4855-6-0-3"
       d="m 129.37254,126.53021 c -0.33438,-0.15165 -0.72591,0.26348 -0.53417,0.59986 1.00762,1.75807 0.48345,3.13191 1.49495,4.03265 0.8955,0.79745 2.33962,0.63465 3.22882,-0.36389 0.88921,-0.99854 0.88419,-2.45181 -0.0113,-3.24925 -1.01658,-0.90528 -2.30708,-0.21788 -4.17829,-1.01937 z m 3.6074,3.75017 c -0.56443,0.63383 -1.48087,0.74257 -2.04261,0.24233 -0.0804,-0.0716 -0.0801,-0.20309 7e-4,-0.29384 0.0808,-0.0907 0.21137,-0.10624 0.2918,-0.0346 0.40127,0.35733 1.05581,0.27967 1.45901,-0.1731 0.0808,-0.0907 0.21137,-0.10624 0.2918,-0.0346 0.0804,0.0716 0.0801,0.2031 -7e-4,0.29385 z"
       inkscape:connector-curvature="0"
       style="fill:#d40000;stroke-width:0.01293923" />
    <path
       id="path4855-6-0-3-2"
       d="m 127.23878,132.19522 c 0.12164,-0.34643 -0.32633,-0.69991 -0.64454,-0.47932 -1.66258,1.15842 -3.07721,0.75717 -3.88545,1.84401 -0.71556,0.9622 -0.42631,2.38639 0.6466,3.18428 1.07291,0.79789 2.5201,0.66501 3.23565,-0.29718 0.81231,-1.0923 0.014,-2.3173 0.64774,-4.25178 z m -3.41818,3.9234 c -0.68104,-0.50646 -0.87,-1.40978 -0.42113,-2.01336 0.0642,-0.0864 0.19525,-0.0977 0.29276,-0.0252 0.0975,0.0725 0.12442,0.2012 0.0601,0.28762 -0.32063,0.43116 -0.18568,1.07633 0.30082,1.43812 0.0975,0.0725 0.12442,0.2012 0.0601,0.28763 -0.0643,0.0864 -0.19526,0.0977 -0.29277,0.0252 z"
       inkscape:connector-curvature="0"
       style="fill:#0000ff;stroke-width:0.01293923"
       inkscape:transform-center-x="-11.641667"
       inkscape:transform-center-y="22.489579" />
    <path
       id="path4805-4-78"
       d="m 120.65383,142.56187 c -0.41529,-0.0511 -0.81321,-0.22368 -1.1184,-0.48782 -0.27236,-0.23645 -0.66061,-0.24071 -0.93103,0 -0.73209,0.64758 -2.07069,0.64758 -2.81436,-0.0319 -0.26077,-0.23858 -0.63743,-0.19385 -0.90207,0.0384 -0.73401,0.64118 -2.06489,0.63906 -2.80469,-0.0362 -0.26077,-0.23858 -0.64323,-0.18958 -0.90979,0.0426 -0.2994,0.25988 -0.69538,0.42817 -1.11454,0.47716 -0.1526,0.017 -0.2627,0.16615 -0.2627,0.33444 v 0.68591 c 0,0.19386 0.1468,0.35788 0.32258,0.34083 0.5563,-0.0533 1.08363,-0.24284 1.5337,-0.55171 1.09136,0.73704 2.64631,0.72639 3.70869,0 1.09136,0.73704 2.64631,0.72639 3.70869,0 0.45007,0.30248 0.98319,0.49633 1.52791,0.54959 0.17577,0.017 0.32257,-0.14699 0.32257,-0.34083 v -0.67314 c 0.002,-0.17042 -0.1101,-0.32805 -0.26656,-0.34722 z m 0,-3.06747 c -0.41529,-0.0511 -0.81321,-0.22367 -1.1184,-0.48781 -0.27236,-0.23645 -0.66061,-0.24071 -0.93103,0 -0.73209,0.64757 -2.07069,0.64757 -2.81436,-0.0319 -0.26077,-0.23858 -0.63743,-0.19385 -0.90207,0.0384 -0.73401,0.64119 -2.06489,0.63906 -2.80469,-0.0362 -0.26077,-0.23858 -0.64323,-0.18959 -0.90979,0.0426 -0.2994,0.25988 -0.69538,0.42816 -1.11454,0.47716 -0.1526,0.017 -0.2627,0.16615 -0.2627,0.33443 v 0.68592 c 0,0.19385 0.1468,0.35787 0.32258,0.34083 0.5563,-0.0533 1.08363,-0.24284 1.5337,-0.55171 1.09136,0.73704 2.64631,0.72639 3.70869,0 1.09136,0.73704 2.64631,0.72639 3.70869,0 0.45007,0.30248 0.98319,0.49633 1.52791,0.54958 0.17577,0.017 0.32257,-0.14698 0.32257,-0.34082 v -0.67315 c 0.002,-0.17041 -0.1101,-0.32805 -0.26656,-0.34722 z m 0,-3.06746 c -0.41529,-0.0533 -0.81321,-0.22367 -1.1184,-0.48782 -0.27236,-0.23645 -0.66061,-0.24071 -0.93103,0 -0.73209,0.64758 -2.07069,0.64758 -2.81436,-0.0319 -0.26077,-0.23858 -0.63743,-0.19385 -0.90207,0.0384 -0.73401,0.64118 -2.06489,0.63906 -2.80469,-0.0362 -0.26077,-0.23857 -0.64323,-0.18958 -0.90979,0.0426 -0.2994,0.25988 -0.69538,0.42817 -1.11454,0.47716 -0.1526,0.017 -0.2627,0.16615 -0.2627,0.33444 v 0.68591 c 0,0.19386 0.1468,0.35788 0.32258,0.34084 0.5563,-0.0533 1.08363,-0.24285 1.5337,-0.55172 1.09136,0.73704 2.64631,0.72639 3.70869,0 1.09136,0.73704 2.64631,0.72639 3.70869,0 0.45007,0.30248 0.98319,0.49633 1.52791,0.54958 0.17577,0.017 0.32257,-0.14698 0.32257,-0.34082 v -0.67314 c 0.002,-0.17042 -0.1101,-0.32805 -0.26656,-0.34722 z"
       inkscape:connector-curvature="0"
       style="fill:#008000;stroke:url(#linearGradient7162);stroke-width:0.02028469" />
    <path
       id="path4855-6-0-3-2-7"
       d="m 116.71024,160.68909 c -0.25331,-0.26579 -0.77176,-0.0274 -0.71988,0.35632 0.27633,2.00742 -0.72396,3.08518 -0.12316,4.29905 0.53193,1.07468 1.932,1.46424 3.13032,0.87114 1.19832,-0.59313 1.73763,-1.94264 1.20573,-3.01729 -0.60384,-1.21998 -2.05781,-1.06563 -3.493,-2.50921 z m 1.94146,4.82782 c -0.76064,0.37649 -1.65118,0.13428 -1.98482,-0.53984 -0.0477,-0.0964 0.002,-0.21833 0.11055,-0.27226 0.10882,-0.0539 0.23577,-0.0194 0.28352,0.0772 0.23835,0.48154 0.87438,0.65453 1.41774,0.38559 0.10882,-0.0539 0.23576,-0.0194 0.28352,0.0772 0.0477,0.0966 -0.002,0.21833 -0.11056,0.27227 z"
       inkscape:connector-curvature="0"
       style="fill:#008000;stroke-width:0.01293923"
       inkscape:transform-center-x="-25.752935"
       inkscape:transform-center-y="-0.5152608" />
    <path
       id="path4855-6-0-9"
       d="m 140.59117,161.6767 c 0.0273,-0.36614 -0.49722,-0.59088 -0.74706,-0.2951 -1.3039,1.55112 -2.77421,1.53179 -3.27182,2.79149 -0.44054,1.11524 0.20932,2.41512 1.45288,2.90635 1.24357,0.49123 2.60633,-0.0136 3.04687,-1.12887 0.50011,-1.26604 -0.58942,-2.24113 -0.48087,-4.27387 z m -2.27959,4.67767 c -0.78936,-0.31182 -1.20685,-1.13485 -0.9305,-1.83443 0.0396,-0.10015 0.16312,-0.14511 0.27613,-0.10047 0.113,0.0446 0.1725,0.1619 0.13294,0.26206 -0.19741,0.49973 0.10077,1.08757 0.66464,1.31031 0.11301,0.0446 0.1725,0.1619 0.13294,0.26207 -0.0396,0.10014 -0.16312,0.1451 -0.27615,0.10046 z"
       inkscape:connector-curvature="0"
       style="fill:#ff00ff;stroke-width:0.01293923" />
    <path
       id="path4805-4-78-2"
       d="m 134.67674,180.66178 c -0.41529,-0.0511 -0.81321,-0.22368 -1.1184,-0.48782 -0.27236,-0.23645 -0.66061,-0.24071 -0.93103,0 -0.73209,0.64758 -2.07069,0.64758 -2.81436,-0.0319 -0.26077,-0.23858 -0.63743,-0.19385 -0.90207,0.0384 -0.73401,0.64118 -2.06489,0.63906 -2.80469,-0.0362 -0.26077,-0.23858 -0.64323,-0.18958 -0.90979,0.0426 -0.2994,0.25988 -0.69538,0.42817 -1.11454,0.47716 -0.1526,0.017 -0.2627,0.16615 -0.2627,0.33444 v 0.68591 c 0,0.19386 0.1468,0.35788 0.32258,0.34083 0.5563,-0.0533 1.08363,-0.24284 1.5337,-0.55171 1.09136,0.73704 2.64631,0.72639 3.70869,0 1.09136,0.73704 2.64631,0.72639 3.70869,0 0.45007,0.30248 0.98319,0.49633 1.52791,0.54959 0.17577,0.017 0.32257,-0.14699 0.32257,-0.34083 v -0.67314 c 0.002,-0.17042 -0.1101,-0.32805 -0.26656,-0.34722 z m 0,-3.06747 c -0.41529,-0.0511 -0.81321,-0.22367 -1.1184,-0.48781 -0.27236,-0.23645 -0.66061,-0.24071 -0.93103,0 -0.73209,0.64757 -2.07069,0.64757 -2.81436,-0.0319 -0.26077,-0.23858 -0.63743,-0.19385 -0.90207,0.0384 -0.73401,0.64119 -2.06489,0.63906 -2.80469,-0.0362 -0.26077,-0.23858 -0.64323,-0.18959 -0.90979,0.0426 -0.2994,0.25988 -0.69538,0.42816 -1.11454,0.47716 -0.1526,0.017 -0.2627,0.16615 -0.2627,0.33443 v 0.68592 c 0,0.19385 0.1468,0.35787 0.32258,0.34083 0.5563,-0.0533 1.08363,-0.24284 1.5337,-0.55171 1.09136,0.73704 2.64631,0.72639 3.70869,0 1.09136,0.73704 2.64631,0.72639 3.70869,0 0.45007,0.30248 0.98319,0.49633 1.52791,0.54958 0.17577,0.017 0.32257,-0.14698 0.32257,-0.34082 v -0.67315 c 0.002,-0.17041 -0.1101,-0.32805 -0.26656,-0.34722 z m 0,-3.06746 c -0.41529,-0.0533 -0.81321,-0.22367 -1.1184,-0.48782 -0.27236,-0.23645 -0.66061,-0.24071 -0.93103,0 -0.73209,0.64758 -2.07069,0.64758 -2.81436,-0.0319 -0.26077,-0.23858 -0.63743,-0.19385 -0.90207,0.0384 -0.73401,0.64118 -2.06489,0.63906 -2.80469,-0.0362 -0.26077,-0.23857 -0.64323,-0.18958 -0.90979,0.0426 -0.2994,0.25988 -0.69538,0.42817 -1.11454,0.47716 -0.1526,0.017 -0.2627,0.16615 -0.2627,0.33444 v 0.68591 c 0,0.19386 0.1468,0.35788 0.32258,0.34084 0.5563,-0.0533 1.08363,-0.24285 1.5337,-0.55172 1.09136,0.73704 2.64631,0.72639 3.70869,0 1.09136,0.73704 2.64631,0.72639 3.70869,0 0.45007,0.30248 0.98319,0.49633 1.52791,0.54958 0.17577,0.017 0.32257,-0.14698 0.32257,-0.34082 v -0.67314 c 0.002,-0.17042 -0.1101,-0.32805 -0.26656,-0.34722 z"
       inkscape:connector-curvature="0"
       style="fill:#800080;stroke:url(#linearGradient7162-3);stroke-width:0.02028469" />
    <path
       id="path4855-6-0-9-4"
       d="m 130.22856,191.53147 c -0.1225,-0.34612 -0.69311,-0.34053 -0.80264,0.0308 -0.56861,1.94494 -1.92215,2.51952 -1.87017,3.87294 0.046,1.19822 1.16444,2.1262 2.50052,2.07488 1.33609,-0.0513 2.38005,-1.06232 2.33401,-2.26056 -0.0522,-1.36023 -1.44225,-1.81383 -2.16172,-3.71809 z m -0.20221,5.19964 c -0.8481,0.0326 -1.56175,-0.55257 -1.59061,-1.3042 -0.004,-0.10761 0.0908,-0.19852 0.21226,-0.20318 0.1214,-0.005 0.2231,0.0787 0.22724,0.1863 0.0206,0.53692 0.53033,0.95484 1.13615,0.93158 0.1214,-0.005 0.2231,0.0787 0.22724,0.18631 0.004,0.10761 -0.0908,0.19852 -0.21228,0.20319 z"
       inkscape:connector-curvature="0"
       style="fill:#800080;stroke-width:0.01293923" />
    <text
       xml:space="preserve"
       style="font-style:normal;font-weight:normal;font-size:10.58333302px;line-height:1.25;font-family:sans-serif;letter-spacing:0px;word-spacing:0px;fill:#000000;fill-opacity:1;stroke:none;stroke-width:0.26458332"
       x="9.260417"
       y="100.15"
       id="text4913"><tspan
         sodipodi:role="line"
         id="tspan4911"
         x="9.260417"
         y="100.15"
         style="stroke-width:0.26458332">Build Graph</tspan></text>
    <use
       id="use5948"
       transform="translate(75.226167,103.43455)"
       style="fill:#000000;stroke:#000000"
       xlink:href="#DownArrow"
       x="0"
       y="0"
       width="100%"
       height="100%" />
    <use
       id="use5948-9"
       transform="translate(75.226167,123.64012)"
       style="fill:#000000;stroke:#000000"
       xlink:href="#DownArrow"
       x="0"
       y="0"
       width="100%"
       height="100%" />
    <use
       id="use5948-9-0"
       transform="translate(74.477813,174.90243)"
       style="fill:#000000;stroke:#000000"
       xlink:href="#DownArrow"
       x="0"
       y="0"
       width="100%"
       height="100%" />
    <use
       id="use5948-9-0-5"
       transform="translate(74.477813,196.97888)"
       style="fill:#000000;stroke:#000000"
       xlink:href="#DownArrow"
       x="0"
       y="0"
       width="100%"
       height="100%" />
    <text
       xml:space="preserve"
       style="font-style:normal;font-weight:normal;font-size:10.58333302px;line-height:1.25;font-family:sans-serif;letter-spacing:0px;word-spacing:0px;fill:#000000;fill-opacity:1;stroke:none;stroke-width:0.26458332"
       x="72.590401"
       y="160.98654"
       id="text6006"><tspan
         sodipodi:role="line"
         id="tspan6004"
         x="72.590401"
         y="160.98654"
         style="stroke-width:0.26458332">Flow</tspan></text>
    <text
       xml:space="preserve"
       style="font-style:normal;font-weight:normal;font-size:10.58333302px;line-height:1.25;font-family:sans-serif;letter-spacing:0px;word-spacing:0px;fill:#000000;fill-opacity:1;stroke:none;stroke-width:0.26458332"
       x="103.16424"
       y="99.30584"
       id="text4913-2"><tspan
         sodipodi:role="line"
         id="tspan4911-2"
         x="103.16424"
         y="99.30584"
         style="stroke-width:0.26458332">Pour waters</tspan></text>
  </g>
</svg>
