<?xml version="1.0" encoding="utf-8" standalone="no"?>
<!DOCTYPE svg PUBLIC "-//W3C//DTD SVG 1.1//EN"
  "http://www.w3.org/Graphics/SVG/1.1/DTD/svg11.dtd">
<!-- Created with matplotlib (https://matplotlib.org/) -->
<svg height="288pt" version="1.1" viewBox="0 0 936 288" width="936pt" xmlns="http://www.w3.org/2000/svg" xmlns:xlink="http://www.w3.org/1999/xlink">
 <defs>
  <style type="text/css">
*{stroke-linecap:butt;stroke-linejoin:round;}
  </style>
 </defs>
 <g id="figure_1">
  <g id="patch_1">
   <path d="M 0 288 
L 936 288 
L 936 0 
L 0 0 
z
" style="fill:#ffffff;"/>
  </g>
  <g id="axes_1">
   <g id="patch_2">
    <path d="M 117 256.32 
L 242.068966 256.32 
L 242.068966 34.56 
L 117 34.56 
z
" style="fill:#ffffff;"/>
   </g>
   <g id="matplotlib.axis_1">
    <g id="xtick_1">
     <g id="line2d_1">
      <defs>
       <path d="M 0 0 
L 0 3.5 
" id="me1d8982b62" style="stroke:#000000;stroke-width:0.8;"/>
      </defs>
      <g>
       <use style="stroke:#000000;stroke-width:0.8;" x="122.684953" xlink:href="#me1d8982b62" y="256.32"/>
      </g>
     </g>
     <g id="text_1">
      <!-- 0.0 -->
      <defs>
       <path d="M 31.78125 66.40625 
Q 24.171875 66.40625 20.328125 58.90625 
Q 16.5 51.421875 16.5 36.375 
Q 16.5 21.390625 20.328125 13.890625 
Q 24.171875 6.390625 31.78125 6.390625 
Q 39.453125 6.390625 43.28125 13.890625 
Q 47.125 21.390625 47.125 36.375 
Q 47.125 51.421875 43.28125 58.90625 
Q 39.453125 66.40625 31.78125 66.40625 
z
M 31.78125 74.21875 
Q 44.046875 74.21875 50.515625 64.515625 
Q 56.984375 54.828125 56.984375 36.375 
Q 56.984375 17.96875 50.515625 8.265625 
Q 44.046875 -1.421875 31.78125 -1.421875 
Q 19.53125 -1.421875 13.0625 8.265625 
Q 6.59375 17.96875 6.59375 36.375 
Q 6.59375 54.828125 13.0625 64.515625 
Q 19.53125 74.21875 31.78125 74.21875 
z
" id="DejaVuSans-48"/>
       <path d="M 10.6875 12.40625 
L 21 12.40625 
L 21 0 
L 10.6875 0 
z
" id="DejaVuSans-46"/>
      </defs>
      <g transform="translate(114.73339 270.918437)scale(0.1 -0.1)">
       <use xlink:href="#DejaVuSans-48"/>
       <use x="63.623047" xlink:href="#DejaVuSans-46"/>
       <use x="95.410156" xlink:href="#DejaVuSans-48"/>
      </g>
     </g>
    </g>
    <g id="xtick_2">
     <g id="line2d_2">
      <g>
       <use style="stroke:#000000;stroke-width:0.8;" x="179.534483" xlink:href="#me1d8982b62" y="256.32"/>
      </g>
     </g>
     <g id="text_2">
      <!-- 0.5 -->
      <defs>
       <path d="M 10.796875 72.90625 
L 49.515625 72.90625 
L 49.515625 64.59375 
L 19.828125 64.59375 
L 19.828125 46.734375 
Q 21.96875 47.46875 24.109375 47.828125 
Q 26.265625 48.1875 28.421875 48.1875 
Q 40.625 48.1875 47.75 41.5 
Q 54.890625 34.8125 54.890625 23.390625 
Q 54.890625 11.625 47.5625 5.09375 
Q 40.234375 -1.421875 26.90625 -1.421875 
Q 22.3125 -1.421875 17.546875 -0.640625 
Q 12.796875 0.140625 7.71875 1.703125 
L 7.71875 11.625 
Q 12.109375 9.234375 16.796875 8.0625 
Q 21.484375 6.890625 26.703125 6.890625 
Q 35.15625 6.890625 40.078125 11.328125 
Q 45.015625 15.765625 45.015625 23.390625 
Q 45.015625 31 40.078125 35.4375 
Q 35.15625 39.890625 26.703125 39.890625 
Q 22.75 39.890625 18.8125 39.015625 
Q 14.890625 38.140625 10.796875 36.28125 
z
" id="DejaVuSans-53"/>
      </defs>
      <g transform="translate(171.58292 270.918437)scale(0.1 -0.1)">
       <use xlink:href="#DejaVuSans-48"/>
       <use x="63.623047" xlink:href="#DejaVuSans-46"/>
       <use x="95.410156" xlink:href="#DejaVuSans-53"/>
      </g>
     </g>
    </g>
    <g id="xtick_3">
     <g id="line2d_3">
      <g>
       <use style="stroke:#000000;stroke-width:0.8;" x="236.384013" xlink:href="#me1d8982b62" y="256.32"/>
      </g>
     </g>
     <g id="text_3">
      <!-- 1.0 -->
      <defs>
       <path d="M 12.40625 8.296875 
L 28.515625 8.296875 
L 28.515625 63.921875 
L 10.984375 60.40625 
L 10.984375 69.390625 
L 28.421875 72.90625 
L 38.28125 72.90625 
L 38.28125 8.296875 
L 54.390625 8.296875 
L 54.390625 0 
L 12.40625 0 
z
" id="DejaVuSans-49"/>
      </defs>
      <g transform="translate(228.43245 270.918437)scale(0.1 -0.1)">
       <use xlink:href="#DejaVuSans-49"/>
       <use x="63.623047" xlink:href="#DejaVuSans-46"/>
       <use x="95.410156" xlink:href="#DejaVuSans-48"/>
      </g>
     </g>
    </g>
   </g>
   <g id="matplotlib.axis_2">
    <g id="ytick_1">
     <g id="line2d_4">
      <defs>
       <path d="M 0 0 
L -3.5 0 
" id="m3f4b0ebdf2" style="stroke:#000000;stroke-width:0.8;"/>
      </defs>
      <g>
       <use style="stroke:#000000;stroke-width:0.8;" x="117" xlink:href="#m3f4b0ebdf2" y="246.24"/>
      </g>
     </g>
     <g id="text_4">
      <!-- 0.0 -->
      <g transform="translate(94.096875 250.039219)scale(0.1 -0.1)">
       <use xlink:href="#DejaVuSans-48"/>
       <use x="63.623047" xlink:href="#DejaVuSans-46"/>
       <use x="95.410156" xlink:href="#DejaVuSans-48"/>
      </g>
     </g>
    </g>
    <g id="ytick_2">
     <g id="line2d_5">
      <g>
       <use style="stroke:#000000;stroke-width:0.8;" x="117" xlink:href="#m3f4b0ebdf2" y="212.64"/>
      </g>
     </g>
     <g id="text_5">
      <!-- 0.5 -->
      <g transform="translate(94.096875 216.439219)scale(0.1 -0.1)">
       <use xlink:href="#DejaVuSans-48"/>
       <use x="63.623047" xlink:href="#DejaVuSans-46"/>
       <use x="95.410156" xlink:href="#DejaVuSans-53"/>
      </g>
     </g>
    </g>
    <g id="ytick_3">
     <g id="line2d_6">
      <g>
       <use style="stroke:#000000;stroke-width:0.8;" x="117" xlink:href="#m3f4b0ebdf2" y="179.04"/>
      </g>
     </g>
     <g id="text_6">
      <!-- 1.0 -->
      <g transform="translate(94.096875 182.839219)scale(0.1 -0.1)">
       <use xlink:href="#DejaVuSans-49"/>
       <use x="63.623047" xlink:href="#DejaVuSans-46"/>
       <use x="95.410156" xlink:href="#DejaVuSans-48"/>
      </g>
     </g>
    </g>
    <g id="ytick_4">
     <g id="line2d_7">
      <g>
       <use style="stroke:#000000;stroke-width:0.8;" x="117" xlink:href="#m3f4b0ebdf2" y="145.44"/>
      </g>
     </g>
     <g id="text_7">
      <!-- 1.5 -->
      <g transform="translate(94.096875 149.239219)scale(0.1 -0.1)">
       <use xlink:href="#DejaVuSans-49"/>
       <use x="63.623047" xlink:href="#DejaVuSans-46"/>
       <use x="95.410156" xlink:href="#DejaVuSans-53"/>
      </g>
     </g>
    </g>
    <g id="ytick_5">
     <g id="line2d_8">
      <g>
       <use style="stroke:#000000;stroke-width:0.8;" x="117" xlink:href="#m3f4b0ebdf2" y="111.84"/>
      </g>
     </g>
     <g id="text_8">
      <!-- 2.0 -->
      <defs>
       <path d="M 19.1875 8.296875 
L 53.609375 8.296875 
L 53.609375 0 
L 7.328125 0 
L 7.328125 8.296875 
Q 12.9375 14.109375 22.625 23.890625 
Q 32.328125 33.6875 34.8125 36.53125 
Q 39.546875 41.84375 41.421875 45.53125 
Q 43.3125 49.21875 43.3125 52.78125 
Q 43.3125 58.59375 39.234375 62.25 
Q 35.15625 65.921875 28.609375 65.921875 
Q 23.96875 65.921875 18.8125 64.3125 
Q 13.671875 62.703125 7.8125 59.421875 
L 7.8125 69.390625 
Q 13.765625 71.78125 18.9375 73 
Q 24.125 74.21875 28.421875 74.21875 
Q 39.75 74.21875 46.484375 68.546875 
Q 53.21875 62.890625 53.21875 53.421875 
Q 53.21875 48.921875 51.53125 44.890625 
Q 49.859375 40.875 45.40625 35.40625 
Q 44.1875 33.984375 37.640625 27.21875 
Q 31.109375 20.453125 19.1875 8.296875 
z
" id="DejaVuSans-50"/>
      </defs>
      <g transform="translate(94.096875 115.639219)scale(0.1 -0.1)">
       <use xlink:href="#DejaVuSans-50"/>
       <use x="63.623047" xlink:href="#DejaVuSans-46"/>
       <use x="95.410156" xlink:href="#DejaVuSans-48"/>
      </g>
     </g>
    </g>
    <g id="ytick_6">
     <g id="line2d_9">
      <g>
       <use style="stroke:#000000;stroke-width:0.8;" x="117" xlink:href="#m3f4b0ebdf2" y="78.24"/>
      </g>
     </g>
     <g id="text_9">
      <!-- 2.5 -->
      <g transform="translate(94.096875 82.039219)scale(0.1 -0.1)">
       <use xlink:href="#DejaVuSans-50"/>
       <use x="63.623047" xlink:href="#DejaVuSans-46"/>
       <use x="95.410156" xlink:href="#DejaVuSans-53"/>
      </g>
     </g>
    </g>
    <g id="ytick_7">
     <g id="line2d_10">
      <g>
       <use style="stroke:#000000;stroke-width:0.8;" x="117" xlink:href="#m3f4b0ebdf2" y="44.64"/>
      </g>
     </g>
     <g id="text_10">
      <!-- 3.0 -->
      <defs>
       <path d="M 40.578125 39.3125 
Q 47.65625 37.796875 51.625 33 
Q 55.609375 28.21875 55.609375 21.1875 
Q 55.609375 10.40625 48.1875 4.484375 
Q 40.765625 -1.421875 27.09375 -1.421875 
Q 22.515625 -1.421875 17.65625 -0.515625 
Q 12.796875 0.390625 7.625 2.203125 
L 7.625 11.71875 
Q 11.71875 9.328125 16.59375 8.109375 
Q 21.484375 6.890625 26.8125 6.890625 
Q 36.078125 6.890625 40.9375 10.546875 
Q 45.796875 14.203125 45.796875 21.1875 
Q 45.796875 27.640625 41.28125 31.265625 
Q 36.765625 34.90625 28.71875 34.90625 
L 20.21875 34.90625 
L 20.21875 43.015625 
L 29.109375 43.015625 
Q 36.375 43.015625 40.234375 45.921875 
Q 44.09375 48.828125 44.09375 54.296875 
Q 44.09375 59.90625 40.109375 62.90625 
Q 36.140625 65.921875 28.71875 65.921875 
Q 24.65625 65.921875 20.015625 65.03125 
Q 15.375 64.15625 9.8125 62.3125 
L 9.8125 71.09375 
Q 15.4375 72.65625 20.34375 73.4375 
Q 25.25 74.21875 29.59375 74.21875 
Q 40.828125 74.21875 47.359375 69.109375 
Q 53.90625 64.015625 53.90625 55.328125 
Q 53.90625 49.265625 50.4375 45.09375 
Q 46.96875 40.921875 40.578125 39.3125 
z
" id="DejaVuSans-51"/>
      </defs>
      <g transform="translate(94.096875 48.439219)scale(0.1 -0.1)">
       <use xlink:href="#DejaVuSans-51"/>
       <use x="63.623047" xlink:href="#DejaVuSans-46"/>
       <use x="95.410156" xlink:href="#DejaVuSans-48"/>
      </g>
     </g>
    </g>
   </g>
   <g id="line2d_11">
    <path clip-path="url(#pff5b56b08e)" d="M 122.684953 179.04 
L 123.833428 179.04 
L 124.981904 179.04 
L 126.130379 179.04 
L 127.278854 179.04 
L 128.42733 179.04 
L 129.575805 179.04 
L 130.72428 179.04 
L 131.872756 179.04 
L 133.021231 179.04 
L 134.169706 179.04 
L 135.318182 179.04 
L 136.466657 179.04 
L 137.615133 179.04 
L 138.763608 179.04 
L 139.912083 179.04 
L 141.060559 179.04 
L 142.209034 179.04 
L 143.357509 179.04 
L 144.505985 179.04 
L 145.65446 179.04 
L 146.802935 179.04 
L 147.951411 179.04 
L 149.099886 179.04 
L 150.248361 179.04 
L 151.396837 179.04 
L 152.545312 179.04 
L 153.693787 179.04 
L 154.842263 179.04 
L 155.990738 179.04 
L 157.139213 179.04 
L 158.287689 179.04 
L 159.436164 179.04 
L 160.584639 179.04 
L 161.733115 179.04 
L 162.88159 179.04 
L 164.030066 179.04 
L 165.178541 179.04 
L 166.327016 179.04 
L 167.475492 179.04 
L 168.623967 179.04 
L 169.772442 179.04 
L 170.920918 179.04 
L 172.069393 179.04 
L 173.217868 179.04 
L 174.366344 179.04 
L 175.514819 179.04 
L 176.663294 179.04 
L 177.81177 179.04 
L 178.960245 179.04 
L 180.10872 179.04 
L 181.257196 179.04 
L 182.405671 179.04 
L 183.554146 179.04 
L 184.702622 179.04 
L 185.851097 179.04 
L 186.999573 179.04 
L 188.148048 179.04 
L 189.296523 179.04 
L 190.444999 179.04 
L 191.593474 179.04 
L 192.741949 179.04 
L 193.890425 179.04 
L 195.0389 179.04 
L 196.187375 179.04 
L 197.335851 179.04 
L 198.484326 179.04 
L 199.632801 179.04 
L 200.781277 179.04 
L 201.929752 179.04 
L 203.078227 179.04 
L 204.226703 179.04 
L 205.375178 179.04 
L 206.523653 179.04 
L 207.672129 179.04 
L 208.820604 179.04 
L 209.96908 179.04 
L 211.117555 179.04 
L 212.26603 179.04 
L 213.414506 179.04 
L 214.562981 179.04 
L 215.711456 179.04 
L 216.859932 179.04 
L 218.008407 179.04 
L 219.156882 179.04 
L 220.305358 179.04 
L 221.453833 179.04 
L 222.602308 179.04 
L 223.750784 179.04 
L 224.899259 179.04 
L 226.047734 179.04 
L 227.19621 179.04 
L 228.344685 179.04 
L 229.49316 179.04 
L 230.641636 179.04 
L 231.790111 179.04 
L 232.938586 179.04 
L 234.087062 179.04 
L 235.235537 179.04 
L 236.384013 179.04 
" style="fill:none;stroke:#1f77b4;stroke-linecap:square;stroke-width:1.5;"/>
   </g>
   <g id="patch_3">
    <path d="M 117 256.32 
L 117 34.56 
" style="fill:none;stroke:#000000;stroke-linecap:square;stroke-linejoin:miter;stroke-width:0.8;"/>
   </g>
   <g id="patch_4">
    <path d="M 242.068966 256.32 
L 242.068966 34.56 
" style="fill:none;stroke:#000000;stroke-linecap:square;stroke-linejoin:miter;stroke-width:0.8;"/>
   </g>
   <g id="patch_5">
    <path d="M 117 256.32 
L 242.068966 256.32 
" style="fill:none;stroke:#000000;stroke-linecap:square;stroke-linejoin:miter;stroke-width:0.8;"/>
   </g>
   <g id="patch_6">
    <path d="M 117 34.56 
L 242.068966 34.56 
" style="fill:none;stroke:#000000;stroke-linecap:square;stroke-linejoin:miter;stroke-width:0.8;"/>
   </g>
   <g id="text_11">
    <!-- 1) a=1,b=1 -->
    <defs>
     <path d="M 8.015625 75.875 
L 15.828125 75.875 
Q 23.140625 64.359375 26.78125 53.3125 
Q 30.421875 42.28125 30.421875 31.390625 
Q 30.421875 20.453125 26.78125 9.375 
Q 23.140625 -1.703125 15.828125 -13.1875 
L 8.015625 -13.1875 
Q 14.5 -2 17.703125 9.0625 
Q 20.90625 20.125 20.90625 31.390625 
Q 20.90625 42.671875 17.703125 53.65625 
Q 14.5 64.65625 8.015625 75.875 
z
" id="DejaVuSans-41"/>
     <path id="DejaVuSans-32"/>
     <path d="M 34.28125 27.484375 
Q 23.390625 27.484375 19.1875 25 
Q 14.984375 22.515625 14.984375 16.5 
Q 14.984375 11.71875 18.140625 8.90625 
Q 21.296875 6.109375 26.703125 6.109375 
Q 34.1875 6.109375 38.703125 11.40625 
Q 43.21875 16.703125 43.21875 25.484375 
L 43.21875 27.484375 
z
M 52.203125 31.203125 
L 52.203125 0 
L 43.21875 0 
L 43.21875 8.296875 
Q 40.140625 3.328125 35.546875 0.953125 
Q 30.953125 -1.421875 24.3125 -1.421875 
Q 15.921875 -1.421875 10.953125 3.296875 
Q 6 8.015625 6 15.921875 
Q 6 25.140625 12.171875 29.828125 
Q 18.359375 34.515625 30.609375 34.515625 
L 43.21875 34.515625 
L 43.21875 35.40625 
Q 43.21875 41.609375 39.140625 45 
Q 35.0625 48.390625 27.6875 48.390625 
Q 23 48.390625 18.546875 47.265625 
Q 14.109375 46.140625 10.015625 43.890625 
L 10.015625 52.203125 
Q 14.9375 54.109375 19.578125 55.046875 
Q 24.21875 56 28.609375 56 
Q 40.484375 56 46.34375 49.84375 
Q 52.203125 43.703125 52.203125 31.203125 
z
" id="DejaVuSans-97"/>
     <path d="M 10.59375 45.40625 
L 73.1875 45.40625 
L 73.1875 37.203125 
L 10.59375 37.203125 
z
M 10.59375 25.484375 
L 73.1875 25.484375 
L 73.1875 17.1875 
L 10.59375 17.1875 
z
" id="DejaVuSans-61"/>
     <path d="M 11.71875 12.40625 
L 22.015625 12.40625 
L 22.015625 4 
L 14.015625 -11.625 
L 7.71875 -11.625 
L 11.71875 4 
z
" id="DejaVuSans-44"/>
     <path d="M 48.6875 27.296875 
Q 48.6875 37.203125 44.609375 42.84375 
Q 40.53125 48.484375 33.40625 48.484375 
Q 26.265625 48.484375 22.1875 42.84375 
Q 18.109375 37.203125 18.109375 27.296875 
Q 18.109375 17.390625 22.1875 11.75 
Q 26.265625 6.109375 33.40625 6.109375 
Q 40.53125 6.109375 44.609375 11.75 
Q 48.6875 17.390625 48.6875 27.296875 
z
M 18.109375 46.390625 
Q 20.953125 51.265625 25.265625 53.625 
Q 29.59375 56 35.59375 56 
Q 45.5625 56 51.78125 48.09375 
Q 58.015625 40.1875 58.015625 27.296875 
Q 58.015625 14.40625 51.78125 6.484375 
Q 45.5625 -1.421875 35.59375 -1.421875 
Q 29.59375 -1.421875 25.265625 0.953125 
Q 20.953125 3.328125 18.109375 8.203125 
L 18.109375 0 
L 9.078125 0 
L 9.078125 75.984375 
L 18.109375 75.984375 
z
" id="DejaVuSans-98"/>
    </defs>
    <g transform="translate(144.385733 28.56)scale(0.12 -0.12)">
     <use xlink:href="#DejaVuSans-49"/>
     <use x="63.623047" xlink:href="#DejaVuSans-41"/>
     <use x="102.636719" xlink:href="#DejaVuSans-32"/>
     <use x="134.423828" xlink:href="#DejaVuSans-97"/>
     <use x="195.703125" xlink:href="#DejaVuSans-61"/>
     <use x="279.492188" xlink:href="#DejaVuSans-49"/>
     <use x="343.115234" xlink:href="#DejaVuSans-44"/>
     <use x="374.902344" xlink:href="#DejaVuSans-98"/>
     <use x="438.378906" xlink:href="#DejaVuSans-61"/>
     <use x="522.167969" xlink:href="#DejaVuSans-49"/>
    </g>
   </g>
  </g>
  <g id="axes_2">
   <g id="patch_7">
    <path d="M 267.082759 256.32 
L 392.151724 256.32 
L 392.151724 34.56 
L 267.082759 34.56 
z
" style="fill:#ffffff;"/>
   </g>
   <g id="matplotlib.axis_3">
    <g id="xtick_4">
     <g id="line2d_12">
      <g>
       <use style="stroke:#000000;stroke-width:0.8;" x="272.767712" xlink:href="#me1d8982b62" y="256.32"/>
      </g>
     </g>
     <g id="text_12">
      <!-- 0.0 -->
      <g transform="translate(264.816149 270.918437)scale(0.1 -0.1)">
       <use xlink:href="#DejaVuSans-48"/>
       <use x="63.623047" xlink:href="#DejaVuSans-46"/>
       <use x="95.410156" xlink:href="#DejaVuSans-48"/>
      </g>
     </g>
    </g>
    <g id="xtick_5">
     <g id="line2d_13">
      <g>
       <use style="stroke:#000000;stroke-width:0.8;" x="329.617241" xlink:href="#me1d8982b62" y="256.32"/>
      </g>
     </g>
     <g id="text_13">
      <!-- 0.5 -->
      <g transform="translate(321.665679 270.918437)scale(0.1 -0.1)">
       <use xlink:href="#DejaVuSans-48"/>
       <use x="63.623047" xlink:href="#DejaVuSans-46"/>
       <use x="95.410156" xlink:href="#DejaVuSans-53"/>
      </g>
     </g>
    </g>
    <g id="xtick_6">
     <g id="line2d_14">
      <g>
       <use style="stroke:#000000;stroke-width:0.8;" x="386.466771" xlink:href="#me1d8982b62" y="256.32"/>
      </g>
     </g>
     <g id="text_14">
      <!-- 1.0 -->
      <g transform="translate(378.515209 270.918437)scale(0.1 -0.1)">
       <use xlink:href="#DejaVuSans-49"/>
       <use x="63.623047" xlink:href="#DejaVuSans-46"/>
       <use x="95.410156" xlink:href="#DejaVuSans-48"/>
      </g>
     </g>
    </g>
   </g>
   <g id="matplotlib.axis_4">
    <g id="ytick_8">
     <g id="line2d_15">
      <g>
       <use style="stroke:#000000;stroke-width:0.8;" x="267.082759" xlink:href="#m3f4b0ebdf2" y="246.24"/>
      </g>
     </g>
    </g>
    <g id="ytick_9">
     <g id="line2d_16">
      <g>
       <use style="stroke:#000000;stroke-width:0.8;" x="267.082759" xlink:href="#m3f4b0ebdf2" y="212.64"/>
      </g>
     </g>
    </g>
    <g id="ytick_10">
     <g id="line2d_17">
      <g>
       <use style="stroke:#000000;stroke-width:0.8;" x="267.082759" xlink:href="#m3f4b0ebdf2" y="179.04"/>
      </g>
     </g>
    </g>
    <g id="ytick_11">
     <g id="line2d_18">
      <g>
       <use style="stroke:#000000;stroke-width:0.8;" x="267.082759" xlink:href="#m3f4b0ebdf2" y="145.44"/>
      </g>
     </g>
    </g>
    <g id="ytick_12">
     <g id="line2d_19">
      <g>
       <use style="stroke:#000000;stroke-width:0.8;" x="267.082759" xlink:href="#m3f4b0ebdf2" y="111.84"/>
      </g>
     </g>
    </g>
    <g id="ytick_13">
     <g id="line2d_20">
      <g>
       <use style="stroke:#000000;stroke-width:0.8;" x="267.082759" xlink:href="#m3f4b0ebdf2" y="78.24"/>
      </g>
     </g>
    </g>
    <g id="ytick_14">
     <g id="line2d_21">
      <g>
       <use style="stroke:#000000;stroke-width:0.8;" x="267.082759" xlink:href="#m3f4b0ebdf2" y="44.64"/>
      </g>
     </g>
    </g>
   </g>
   <g id="line2d_22">
    <path clip-path="url(#p25b90df5b9)" d="M 272.767712 246.24 
L 273.916187 244.882424 
L 275.064662 243.524848 
L 276.213138 242.167273 
L 277.361613 240.809697 
L 278.510088 239.452121 
L 279.658564 238.094545 
L 280.807039 236.73697 
L 281.955514 235.379394 
L 283.10399 234.021818 
L 284.252465 232.664242 
L 285.40094 231.306667 
L 286.549416 229.949091 
L 287.697891 228.591515 
L 288.846366 227.233939 
L 289.994842 225.876364 
L 291.143317 224.518788 
L 292.291793 223.161212 
L 293.440268 221.803636 
L 294.588743 220.446061 
L 295.737219 219.088485 
L 296.885694 217.730909 
L 298.034169 216.373333 
L 299.182645 215.015758 
L 300.33112 213.658182 
L 301.479595 212.300606 
L 302.628071 210.94303 
L 303.776546 209.585455 
L 304.925021 208.227879 
L 306.073497 206.870303 
L 307.221972 205.512727 
L 308.370447 204.155152 
L 309.518923 202.797576 
L 310.667398 201.44 
L 311.815873 200.082424 
L 312.964349 198.724848 
L 314.112824 197.367273 
L 315.2613 196.009697 
L 316.409775 194.652121 
L 317.55825 193.294545 
L 318.706726 191.93697 
L 319.855201 190.579394 
L 321.003676 189.221818 
L 322.152152 187.864242 
L 323.300627 186.506667 
L 324.449102 185.149091 
L 325.597578 183.791515 
L 326.746053 182.433939 
L 327.894528 181.076364 
L 329.043004 179.718788 
L 330.191479 178.361212 
L 331.339954 177.003636 
L 332.48843 175.646061 
L 333.636905 174.288485 
L 334.78538 172.930909 
L 335.933856 171.573333 
L 337.082331 170.215758 
L 338.230806 168.858182 
L 339.379282 167.500606 
L 340.527757 166.14303 
L 341.676233 164.785455 
L 342.824708 163.427879 
L 343.973183 162.070303 
L 345.121659 160.712727 
L 346.270134 159.355152 
L 347.418609 157.997576 
L 348.567085 156.64 
L 349.71556 155.282424 
L 350.864035 153.924848 
L 352.012511 152.567273 
L 353.160986 151.209697 
L 354.309461 149.852121 
L 355.457937 148.494545 
L 356.606412 147.13697 
L 357.754887 145.779394 
L 358.903363 144.421818 
L 360.051838 143.064242 
L 361.200313 141.706667 
L 362.348789 140.349091 
L 363.497264 138.991515 
L 364.64574 137.633939 
L 365.794215 136.276364 
L 366.94269 134.918788 
L 368.091166 133.561212 
L 369.239641 132.203636 
L 370.388116 130.846061 
L 371.536592 129.488485 
L 372.685067 128.130909 
L 373.833542 126.773333 
L 374.982018 125.415758 
L 376.130493 124.058182 
L 377.278968 122.700606 
L 378.427444 121.34303 
L 379.575919 119.985455 
L 380.724394 118.627879 
L 381.87287 117.270303 
L 383.021345 115.912727 
L 384.16982 114.555152 
L 385.318296 113.197576 
L 386.466771 111.84 
" style="fill:none;stroke:#1f77b4;stroke-linecap:square;stroke-width:1.5;"/>
   </g>
   <g id="patch_8">
    <path d="M 267.082759 256.32 
L 267.082759 34.56 
" style="fill:none;stroke:#000000;stroke-linecap:square;stroke-linejoin:miter;stroke-width:0.8;"/>
   </g>
   <g id="patch_9">
    <path d="M 392.151724 256.32 
L 392.151724 34.56 
" style="fill:none;stroke:#000000;stroke-linecap:square;stroke-linejoin:miter;stroke-width:0.8;"/>
   </g>
   <g id="patch_10">
    <path d="M 267.082759 256.32 
L 392.151724 256.32 
" style="fill:none;stroke:#000000;stroke-linecap:square;stroke-linejoin:miter;stroke-width:0.8;"/>
   </g>
   <g id="patch_11">
    <path d="M 267.082759 34.56 
L 392.151724 34.56 
" style="fill:none;stroke:#000000;stroke-linecap:square;stroke-linejoin:miter;stroke-width:0.8;"/>
   </g>
   <g id="text_15">
    <!-- 2) a=2,b=1 -->
    <g transform="translate(294.468491 28.56)scale(0.12 -0.12)">
     <use xlink:href="#DejaVuSans-50"/>
     <use x="63.623047" xlink:href="#DejaVuSans-41"/>
     <use x="102.636719" xlink:href="#DejaVuSans-32"/>
     <use x="134.423828" xlink:href="#DejaVuSans-97"/>
     <use x="195.703125" xlink:href="#DejaVuSans-61"/>
     <use x="279.492188" xlink:href="#DejaVuSans-50"/>
     <use x="343.115234" xlink:href="#DejaVuSans-44"/>
     <use x="374.902344" xlink:href="#DejaVuSans-98"/>
     <use x="438.378906" xlink:href="#DejaVuSans-61"/>
     <use x="522.167969" xlink:href="#DejaVuSans-49"/>
    </g>
   </g>
  </g>
  <g id="axes_3">
   <g id="patch_12">
    <path d="M 417.165517 256.32 
L 542.234483 256.32 
L 542.234483 34.56 
L 417.165517 34.56 
z
" style="fill:#ffffff;"/>
   </g>
   <g id="matplotlib.axis_5">
    <g id="xtick_7">
     <g id="line2d_23">
      <g>
       <use style="stroke:#000000;stroke-width:0.8;" x="422.85047" xlink:href="#me1d8982b62" y="256.32"/>
      </g>
     </g>
     <g id="text_16">
      <!-- 0.0 -->
      <g transform="translate(414.898908 270.918437)scale(0.1 -0.1)">
       <use xlink:href="#DejaVuSans-48"/>
       <use x="63.623047" xlink:href="#DejaVuSans-46"/>
       <use x="95.410156" xlink:href="#DejaVuSans-48"/>
      </g>
     </g>
    </g>
    <g id="xtick_8">
     <g id="line2d_24">
      <g>
       <use style="stroke:#000000;stroke-width:0.8;" x="479.7" xlink:href="#me1d8982b62" y="256.32"/>
      </g>
     </g>
     <g id="text_17">
      <!-- 0.5 -->
      <g transform="translate(471.748438 270.918437)scale(0.1 -0.1)">
       <use xlink:href="#DejaVuSans-48"/>
       <use x="63.623047" xlink:href="#DejaVuSans-46"/>
       <use x="95.410156" xlink:href="#DejaVuSans-53"/>
      </g>
     </g>
    </g>
    <g id="xtick_9">
     <g id="line2d_25">
      <g>
       <use style="stroke:#000000;stroke-width:0.8;" x="536.54953" xlink:href="#me1d8982b62" y="256.32"/>
      </g>
     </g>
     <g id="text_18">
      <!-- 1.0 -->
      <g transform="translate(528.597967 270.918437)scale(0.1 -0.1)">
       <use xlink:href="#DejaVuSans-49"/>
       <use x="63.623047" xlink:href="#DejaVuSans-46"/>
       <use x="95.410156" xlink:href="#DejaVuSans-48"/>
      </g>
     </g>
    </g>
   </g>
   <g id="matplotlib.axis_6">
    <g id="ytick_15">
     <g id="line2d_26">
      <g>
       <use style="stroke:#000000;stroke-width:0.8;" x="417.165517" xlink:href="#m3f4b0ebdf2" y="246.24"/>
      </g>
     </g>
    </g>
    <g id="ytick_16">
     <g id="line2d_27">
      <g>
       <use style="stroke:#000000;stroke-width:0.8;" x="417.165517" xlink:href="#m3f4b0ebdf2" y="212.64"/>
      </g>
     </g>
    </g>
    <g id="ytick_17">
     <g id="line2d_28">
      <g>
       <use style="stroke:#000000;stroke-width:0.8;" x="417.165517" xlink:href="#m3f4b0ebdf2" y="179.04"/>
      </g>
     </g>
    </g>
    <g id="ytick_18">
     <g id="line2d_29">
      <g>
       <use style="stroke:#000000;stroke-width:0.8;" x="417.165517" xlink:href="#m3f4b0ebdf2" y="145.44"/>
      </g>
     </g>
    </g>
    <g id="ytick_19">
     <g id="line2d_30">
      <g>
       <use style="stroke:#000000;stroke-width:0.8;" x="417.165517" xlink:href="#m3f4b0ebdf2" y="111.84"/>
      </g>
     </g>
    </g>
    <g id="ytick_20">
     <g id="line2d_31">
      <g>
       <use style="stroke:#000000;stroke-width:0.8;" x="417.165517" xlink:href="#m3f4b0ebdf2" y="78.24"/>
      </g>
     </g>
    </g>
    <g id="ytick_21">
     <g id="line2d_32">
      <g>
       <use style="stroke:#000000;stroke-width:0.8;" x="417.165517" xlink:href="#m3f4b0ebdf2" y="44.64"/>
      </g>
     </g>
    </g>
   </g>
   <g id="line2d_33">
    <path clip-path="url(#p62b6cae534)" d="M 422.85047 246.24 
L 423.998946 246.219431 
L 425.147421 246.157723 
L 426.295896 246.054876 
L 427.444372 245.910891 
L 428.592847 245.725767 
L 429.741322 245.499504 
L 430.889798 245.232103 
L 432.038273 244.923563 
L 433.186748 244.573884 
L 434.335224 244.183067 
L 435.483699 243.751111 
L 436.632174 243.278017 
L 437.78065 242.763783 
L 438.929125 242.208411 
L 440.0776 241.611901 
L 441.226076 240.974252 
L 442.374551 240.295464 
L 443.523027 239.575537 
L 444.671502 238.814472 
L 445.819977 238.012268 
L 446.968453 237.168926 
L 448.116928 236.284444 
L 449.265403 235.358825 
L 450.413879 234.392066 
L 451.562354 233.384169 
L 452.710829 232.335133 
L 453.859305 231.244959 
L 455.00778 230.113646 
L 456.156255 228.941194 
L 457.304731 227.727603 
L 458.453206 226.472874 
L 459.601681 225.177006 
L 460.750157 223.84 
L 461.898632 222.461855 
L 463.047107 221.042571 
L 464.195583 219.582149 
L 465.344058 218.080588 
L 466.492533 216.537888 
L 467.641009 214.95405 
L 468.789484 213.329073 
L 469.93796 211.662957 
L 471.086435 209.955702 
L 472.23491 208.207309 
L 473.383386 206.417778 
L 474.531861 204.587107 
L 475.680336 202.715298 
L 476.828812 200.802351 
L 477.977287 198.848264 
L 479.125762 196.853039 
L 480.274238 194.816676 
L 481.422713 192.739174 
L 482.571188 190.620533 
L 483.719664 188.460753 
L 484.868139 186.259835 
L 486.016614 184.017778 
L 487.16509 181.734582 
L 488.313565 179.410248 
L 489.46204 177.044775 
L 490.610516 174.638163 
L 491.758991 172.190413 
L 492.907467 169.701524 
L 494.055942 167.171497 
L 495.204417 164.600331 
L 496.352893 161.988026 
L 497.501368 159.334582 
L 498.649843 156.64 
L 499.798319 153.904279 
L 500.946794 151.12742 
L 502.095269 148.309421 
L 503.243745 145.450285 
L 504.39222 142.550009 
L 505.540695 139.608595 
L 506.689171 136.626042 
L 507.837646 133.602351 
L 508.986121 130.537521 
L 510.134597 127.431552 
L 511.283072 124.284444 
L 512.431547 121.096198 
L 513.580023 117.866814 
L 514.728498 114.59629 
L 515.876973 111.284628 
L 517.025449 107.931827 
L 518.173924 104.537888 
L 519.3224 101.10281 
L 520.470875 97.626593 
L 521.61935 94.109238 
L 522.767826 90.550744 
L 523.916301 86.951111 
L 525.064776 83.31034 
L 526.213252 79.62843 
L 527.361727 75.905381 
L 528.510202 72.141194 
L 529.658678 68.335868 
L 530.807153 64.489403 
L 531.955628 60.6018 
L 533.104104 56.673058 
L 534.252579 52.703177 
L 535.401054 48.692158 
L 536.54953 44.64 
" style="fill:none;stroke:#1f77b4;stroke-linecap:square;stroke-width:1.5;"/>
   </g>
   <g id="patch_13">
    <path d="M 417.165517 256.32 
L 417.165517 34.56 
" style="fill:none;stroke:#000000;stroke-linecap:square;stroke-linejoin:miter;stroke-width:0.8;"/>
   </g>
   <g id="patch_14">
    <path d="M 542.234483 256.32 
L 542.234483 34.56 
" style="fill:none;stroke:#000000;stroke-linecap:square;stroke-linejoin:miter;stroke-width:0.8;"/>
   </g>
   <g id="patch_15">
    <path d="M 417.165517 256.32 
L 542.234483 256.32 
" style="fill:none;stroke:#000000;stroke-linecap:square;stroke-linejoin:miter;stroke-width:0.8;"/>
   </g>
   <g id="patch_16">
    <path d="M 417.165517 34.56 
L 542.234483 34.56 
" style="fill:none;stroke:#000000;stroke-linecap:square;stroke-linejoin:miter;stroke-width:0.8;"/>
   </g>
   <g id="text_19">
    <!-- 3) a=3,b=1 -->
    <g transform="translate(444.55125 28.56)scale(0.12 -0.12)">
     <use xlink:href="#DejaVuSans-51"/>
     <use x="63.623047" xlink:href="#DejaVuSans-41"/>
     <use x="102.636719" xlink:href="#DejaVuSans-32"/>
     <use x="134.423828" xlink:href="#DejaVuSans-97"/>
     <use x="195.703125" xlink:href="#DejaVuSans-61"/>
     <use x="279.492188" xlink:href="#DejaVuSans-51"/>
     <use x="343.115234" xlink:href="#DejaVuSans-44"/>
     <use x="374.902344" xlink:href="#DejaVuSans-98"/>
     <use x="438.378906" xlink:href="#DejaVuSans-61"/>
     <use x="522.167969" xlink:href="#DejaVuSans-49"/>
    </g>
   </g>
  </g>
  <g id="axes_4">
   <g id="patch_17">
    <path d="M 567.248276 256.32 
L 692.317241 256.32 
L 692.317241 34.56 
L 567.248276 34.56 
z
" style="fill:#ffffff;"/>
   </g>
   <g id="matplotlib.axis_7">
    <g id="xtick_10">
     <g id="line2d_34">
      <g>
       <use style="stroke:#000000;stroke-width:0.8;" x="572.933229" xlink:href="#me1d8982b62" y="256.32"/>
      </g>
     </g>
     <g id="text_20">
      <!-- 0.0 -->
      <g transform="translate(564.981666 270.918437)scale(0.1 -0.1)">
       <use xlink:href="#DejaVuSans-48"/>
       <use x="63.623047" xlink:href="#DejaVuSans-46"/>
       <use x="95.410156" xlink:href="#DejaVuSans-48"/>
      </g>
     </g>
    </g>
    <g id="xtick_11">
     <g id="line2d_35">
      <g>
       <use style="stroke:#000000;stroke-width:0.8;" x="629.782759" xlink:href="#me1d8982b62" y="256.32"/>
      </g>
     </g>
     <g id="text_21">
      <!-- 0.5 -->
      <g transform="translate(621.831196 270.918437)scale(0.1 -0.1)">
       <use xlink:href="#DejaVuSans-48"/>
       <use x="63.623047" xlink:href="#DejaVuSans-46"/>
       <use x="95.410156" xlink:href="#DejaVuSans-53"/>
      </g>
     </g>
    </g>
    <g id="xtick_12">
     <g id="line2d_36">
      <g>
       <use style="stroke:#000000;stroke-width:0.8;" x="686.632288" xlink:href="#me1d8982b62" y="256.32"/>
      </g>
     </g>
     <g id="text_22">
      <!-- 1.0 -->
      <g transform="translate(678.680726 270.918437)scale(0.1 -0.1)">
       <use xlink:href="#DejaVuSans-49"/>
       <use x="63.623047" xlink:href="#DejaVuSans-46"/>
       <use x="95.410156" xlink:href="#DejaVuSans-48"/>
      </g>
     </g>
    </g>
   </g>
   <g id="matplotlib.axis_8">
    <g id="ytick_22">
     <g id="line2d_37">
      <g>
       <use style="stroke:#000000;stroke-width:0.8;" x="567.248276" xlink:href="#m3f4b0ebdf2" y="246.24"/>
      </g>
     </g>
    </g>
    <g id="ytick_23">
     <g id="line2d_38">
      <g>
       <use style="stroke:#000000;stroke-width:0.8;" x="567.248276" xlink:href="#m3f4b0ebdf2" y="212.64"/>
      </g>
     </g>
    </g>
    <g id="ytick_24">
     <g id="line2d_39">
      <g>
       <use style="stroke:#000000;stroke-width:0.8;" x="567.248276" xlink:href="#m3f4b0ebdf2" y="179.04"/>
      </g>
     </g>
    </g>
    <g id="ytick_25">
     <g id="line2d_40">
      <g>
       <use style="stroke:#000000;stroke-width:0.8;" x="567.248276" xlink:href="#m3f4b0ebdf2" y="145.44"/>
      </g>
     </g>
    </g>
    <g id="ytick_26">
     <g id="line2d_41">
      <g>
       <use style="stroke:#000000;stroke-width:0.8;" x="567.248276" xlink:href="#m3f4b0ebdf2" y="111.84"/>
      </g>
     </g>
    </g>
    <g id="ytick_27">
     <g id="line2d_42">
      <g>
       <use style="stroke:#000000;stroke-width:0.8;" x="567.248276" xlink:href="#m3f4b0ebdf2" y="78.24"/>
      </g>
     </g>
    </g>
    <g id="ytick_28">
     <g id="line2d_43">
      <g>
       <use style="stroke:#000000;stroke-width:0.8;" x="567.248276" xlink:href="#m3f4b0ebdf2" y="44.64"/>
      </g>
     </g>
    </g>
   </g>
   <g id="line2d_44">
    <path clip-path="url(#p340e121347)" d="M 572.933229 246.24 
L 574.081704 246.158554 
L 575.23018 245.917539 
L 576.378655 245.521943 
L 577.52713 244.976752 
L 578.675606 244.286953 
L 579.824081 243.457531 
L 580.972556 242.493473 
L 582.121032 241.399767 
L 583.269507 240.181397 
L 584.417982 238.843352 
L 585.566458 237.390617 
L 586.714933 235.828179 
L 587.863408 234.161025 
L 589.011884 232.39414 
L 590.160359 230.532512 
L 591.308834 228.581127 
L 592.45731 226.544971 
L 593.605785 224.429031 
L 594.75426 222.238293 
L 595.902736 219.977745 
L 597.051211 217.652372 
L 598.199687 215.26716 
L 599.348162 212.827098 
L 600.496637 210.33717 
L 601.645113 207.802364 
L 602.793588 205.227665 
L 603.942063 202.618062 
L 605.090539 199.978539 
L 606.239014 197.314083 
L 607.387489 194.629682 
L 608.535965 191.930321 
L 609.68444 189.220987 
L 610.832915 186.506667 
L 611.981391 183.792346 
L 613.129866 181.083012 
L 614.278341 178.383651 
L 615.426817 175.69925 
L 616.575292 173.034795 
L 617.723767 170.395272 
L 618.872243 167.785668 
L 620.020718 165.21097 
L 621.169194 162.676163 
L 622.317669 160.186236 
L 623.466144 157.746173 
L 624.61462 155.360962 
L 625.763095 153.035589 
L 626.91157 150.77504 
L 628.060046 148.584303 
L 629.208521 146.468363 
L 630.356996 144.432207 
L 631.505472 142.480821 
L 632.653947 140.619193 
L 633.802422 138.852309 
L 634.950898 137.185154 
L 636.099373 135.622716 
L 637.247848 134.169981 
L 638.396324 132.831936 
L 639.544799 131.613567 
L 640.693274 130.51986 
L 641.84175 129.555803 
L 642.990225 128.726381 
L 644.1387 128.036581 
L 645.287176 127.49139 
L 646.435651 127.095794 
L 647.584127 126.85478 
L 648.732602 126.773333 
L 649.881077 126.856442 
L 651.029553 127.109091 
L 652.178028 127.536268 
L 653.326503 128.14296 
L 654.474979 128.934152 
L 655.623454 129.914831 
L 656.771929 131.089984 
L 657.920405 132.464597 
L 659.06888 134.043656 
L 660.217355 135.832149 
L 661.365831 137.835062 
L 662.514306 140.05738 
L 663.662781 142.504092 
L 664.811257 145.180182 
L 665.959732 148.090639 
L 667.108207 151.240447 
L 668.256683 154.634594 
L 669.405158 158.278067 
L 670.553634 162.175851 
L 671.702109 166.332933 
L 672.850584 170.7543 
L 673.99906 175.444938 
L 675.147535 180.409834 
L 676.29601 185.653974 
L 677.444486 191.182345 
L 678.592961 196.999934 
L 679.741436 203.111726 
L 680.889912 209.522708 
L 682.038387 216.237867 
L 683.186862 223.262189 
L 684.335338 230.600661 
L 685.483813 238.258269 
L 686.632288 246.24 
" style="fill:none;stroke:#1f77b4;stroke-linecap:square;stroke-width:1.5;"/>
   </g>
   <g id="patch_18">
    <path d="M 567.248276 256.32 
L 567.248276 34.56 
" style="fill:none;stroke:#000000;stroke-linecap:square;stroke-linejoin:miter;stroke-width:0.8;"/>
   </g>
   <g id="patch_19">
    <path d="M 692.317241 256.32 
L 692.317241 34.56 
" style="fill:none;stroke:#000000;stroke-linecap:square;stroke-linejoin:miter;stroke-width:0.8;"/>
   </g>
   <g id="patch_20">
    <path d="M 567.248276 256.32 
L 692.317241 256.32 
" style="fill:none;stroke:#000000;stroke-linecap:square;stroke-linejoin:miter;stroke-width:0.8;"/>
   </g>
   <g id="patch_21">
    <path d="M 567.248276 34.56 
L 692.317241 34.56 
" style="fill:none;stroke:#000000;stroke-linecap:square;stroke-linejoin:miter;stroke-width:0.8;"/>
   </g>
   <g id="text_23">
    <!-- 4) a=3,b=2 -->
    <defs>
     <path d="M 37.796875 64.3125 
L 12.890625 25.390625 
L 37.796875 25.390625 
z
M 35.203125 72.90625 
L 47.609375 72.90625 
L 47.609375 25.390625 
L 58.015625 25.390625 
L 58.015625 17.1875 
L 47.609375 17.1875 
L 47.609375 0 
L 37.796875 0 
L 37.796875 17.1875 
L 4.890625 17.1875 
L 4.890625 26.703125 
z
" id="DejaVuSans-52"/>
    </defs>
    <g transform="translate(594.634009 28.56)scale(0.12 -0.12)">
     <use xlink:href="#DejaVuSans-52"/>
     <use x="63.623047" xlink:href="#DejaVuSans-41"/>
     <use x="102.636719" xlink:href="#DejaVuSans-32"/>
     <use x="134.423828" xlink:href="#DejaVuSans-97"/>
     <use x="195.703125" xlink:href="#DejaVuSans-61"/>
     <use x="279.492188" xlink:href="#DejaVuSans-51"/>
     <use x="343.115234" xlink:href="#DejaVuSans-44"/>
     <use x="374.902344" xlink:href="#DejaVuSans-98"/>
     <use x="438.378906" xlink:href="#DejaVuSans-61"/>
     <use x="522.167969" xlink:href="#DejaVuSans-50"/>
    </g>
   </g>
  </g>
  <g id="axes_5">
   <g id="patch_22">
    <path d="M 717.331034 256.32 
L 842.4 256.32 
L 842.4 34.56 
L 717.331034 34.56 
z
" style="fill:#ffffff;"/>
   </g>
   <g id="matplotlib.axis_9">
    <g id="xtick_13">
     <g id="line2d_45">
      <g>
       <use style="stroke:#000000;stroke-width:0.8;" x="723.015987" xlink:href="#me1d8982b62" y="256.32"/>
      </g>
     </g>
     <g id="text_24">
      <!-- 0.0 -->
      <g transform="translate(715.064425 270.918437)scale(0.1 -0.1)">
       <use xlink:href="#DejaVuSans-48"/>
       <use x="63.623047" xlink:href="#DejaVuSans-46"/>
       <use x="95.410156" xlink:href="#DejaVuSans-48"/>
      </g>
     </g>
    </g>
    <g id="xtick_14">
     <g id="line2d_46">
      <g>
       <use style="stroke:#000000;stroke-width:0.8;" x="779.865517" xlink:href="#me1d8982b62" y="256.32"/>
      </g>
     </g>
     <g id="text_25">
      <!-- 0.5 -->
      <g transform="translate(771.913955 270.918437)scale(0.1 -0.1)">
       <use xlink:href="#DejaVuSans-48"/>
       <use x="63.623047" xlink:href="#DejaVuSans-46"/>
       <use x="95.410156" xlink:href="#DejaVuSans-53"/>
      </g>
     </g>
    </g>
    <g id="xtick_15">
     <g id="line2d_47">
      <g>
       <use style="stroke:#000000;stroke-width:0.8;" x="836.715047" xlink:href="#me1d8982b62" y="256.32"/>
      </g>
     </g>
     <g id="text_26">
      <!-- 1.0 -->
      <g transform="translate(828.763485 270.918437)scale(0.1 -0.1)">
       <use xlink:href="#DejaVuSans-49"/>
       <use x="63.623047" xlink:href="#DejaVuSans-46"/>
       <use x="95.410156" xlink:href="#DejaVuSans-48"/>
      </g>
     </g>
    </g>
   </g>
   <g id="matplotlib.axis_10">
    <g id="ytick_29">
     <g id="line2d_48">
      <g>
       <use style="stroke:#000000;stroke-width:0.8;" x="717.331034" xlink:href="#m3f4b0ebdf2" y="246.24"/>
      </g>
     </g>
    </g>
    <g id="ytick_30">
     <g id="line2d_49">
      <g>
       <use style="stroke:#000000;stroke-width:0.8;" x="717.331034" xlink:href="#m3f4b0ebdf2" y="212.64"/>
      </g>
     </g>
    </g>
    <g id="ytick_31">
     <g id="line2d_50">
      <g>
       <use style="stroke:#000000;stroke-width:0.8;" x="717.331034" xlink:href="#m3f4b0ebdf2" y="179.04"/>
      </g>
     </g>
    </g>
    <g id="ytick_32">
     <g id="line2d_51">
      <g>
       <use style="stroke:#000000;stroke-width:0.8;" x="717.331034" xlink:href="#m3f4b0ebdf2" y="145.44"/>
      </g>
     </g>
    </g>
    <g id="ytick_33">
     <g id="line2d_52">
      <g>
       <use style="stroke:#000000;stroke-width:0.8;" x="717.331034" xlink:href="#m3f4b0ebdf2" y="111.84"/>
      </g>
     </g>
    </g>
    <g id="ytick_34">
     <g id="line2d_53">
      <g>
       <use style="stroke:#000000;stroke-width:0.8;" x="717.331034" xlink:href="#m3f4b0ebdf2" y="78.24"/>
      </g>
     </g>
    </g>
    <g id="ytick_35">
     <g id="line2d_54">
      <g>
       <use style="stroke:#000000;stroke-width:0.8;" x="717.331034" xlink:href="#m3f4b0ebdf2" y="44.64"/>
      </g>
     </g>
    </g>
   </g>
   <g id="line2d_55">
    <path clip-path="url(#p710bbdd5da)" d="M 723.015987 246.24 
L 724.164463 246.038441 
L 725.312938 245.450134 
L 726.461414 244.499257 
L 727.609889 243.209481 
L 728.758364 241.603978 
L 729.90684 239.705413 
L 731.055315 237.535948 
L 732.20379 235.117241 
L 733.352266 232.470449 
L 734.500741 229.616221 
L 735.649216 226.574705 
L 736.797692 223.365545 
L 737.946167 220.007882 
L 739.094642 216.520351 
L 740.243118 212.921086 
L 741.391593 209.227715 
L 742.540068 205.457364 
L 743.688544 201.626654 
L 744.837019 197.751704 
L 745.985494 193.848127 
L 747.13397 189.931035 
L 748.282445 186.015034 
L 749.43092 182.114228 
L 750.579396 178.242216 
L 751.727871 174.412094 
L 752.876347 170.636454 
L 754.024822 166.927385 
L 755.173297 163.296471 
L 756.321773 159.754794 
L 757.470248 156.312931 
L 758.618723 152.980955 
L 759.767199 149.768438 
L 760.915674 146.684444 
L 762.064149 143.737538 
L 763.212625 140.935777 
L 764.3611 138.286718 
L 765.509575 135.797412 
L 766.658051 133.474406 
L 767.806526 131.323745 
L 768.955001 129.35097 
L 770.103477 127.561117 
L 771.251952 125.95872 
L 772.400427 124.547808 
L 773.548903 123.331907 
L 774.697378 122.314039 
L 775.845854 121.496722 
L 776.994329 120.881972 
L 778.142804 120.471299 
L 779.29128 120.26571 
L 780.439755 120.26571 
L 781.58823 120.471299 
L 782.736706 120.881972 
L 783.885181 121.496722 
L 785.033656 122.314039 
L 786.182132 123.331907 
L 787.330607 124.547808 
L 788.479082 125.95872 
L 789.627558 127.561117 
L 790.776033 129.35097 
L 791.924508 131.323745 
L 793.072984 133.474406 
L 794.221459 135.797412 
L 795.369934 138.286718 
L 796.51841 140.935777 
L 797.666885 143.737538 
L 798.815361 146.684444 
L 799.963836 149.768438 
L 801.112311 152.980955 
L 802.260787 156.312931 
L 803.409262 159.754794 
L 804.557737 163.296471 
L 805.706213 166.927385 
L 806.854688 170.636454 
L 808.003163 174.412094 
L 809.151639 178.242216 
L 810.300114 182.114228 
L 811.448589 186.015034 
L 812.597065 189.931035 
L 813.74554 193.848127 
L 814.894015 197.751704 
L 816.042491 201.626654 
L 817.190966 205.457364 
L 818.339441 209.227715 
L 819.487917 212.921086 
L 820.636392 216.520351 
L 821.784867 220.007882 
L 822.933343 223.365545 
L 824.081818 226.574705 
L 825.230294 229.616221 
L 826.378769 232.470449 
L 827.527244 235.117241 
L 828.67572 237.535948 
L 829.824195 239.705413 
L 830.97267 241.603978 
L 832.121146 243.209481 
L 833.269621 244.499257 
L 834.418096 245.450134 
L 835.566572 246.038441 
L 836.715047 246.24 
" style="fill:none;stroke:#1f77b4;stroke-linecap:square;stroke-width:1.5;"/>
   </g>
   <g id="patch_23">
    <path d="M 717.331034 256.32 
L 717.331034 34.56 
" style="fill:none;stroke:#000000;stroke-linecap:square;stroke-linejoin:miter;stroke-width:0.8;"/>
   </g>
   <g id="patch_24">
    <path d="M 842.4 256.32 
L 842.4 34.56 
" style="fill:none;stroke:#000000;stroke-linecap:square;stroke-linejoin:miter;stroke-width:0.8;"/>
   </g>
   <g id="patch_25">
    <path d="M 717.331034 256.32 
L 842.4 256.32 
" style="fill:none;stroke:#000000;stroke-linecap:square;stroke-linejoin:miter;stroke-width:0.8;"/>
   </g>
   <g id="patch_26">
    <path d="M 717.331034 34.56 
L 842.4 34.56 
" style="fill:none;stroke:#000000;stroke-linecap:square;stroke-linejoin:miter;stroke-width:0.8;"/>
   </g>
   <g id="text_27">
    <!-- 5) a=3,b=3 -->
    <g transform="translate(744.716767 28.56)scale(0.12 -0.12)">
     <use xlink:href="#DejaVuSans-53"/>
     <use x="63.623047" xlink:href="#DejaVuSans-41"/>
     <use x="102.636719" xlink:href="#DejaVuSans-32"/>
     <use x="134.423828" xlink:href="#DejaVuSans-97"/>
     <use x="195.703125" xlink:href="#DejaVuSans-61"/>
     <use x="279.492188" xlink:href="#DejaVuSans-51"/>
     <use x="343.115234" xlink:href="#DejaVuSans-44"/>
     <use x="374.902344" xlink:href="#DejaVuSans-98"/>
     <use x="438.378906" xlink:href="#DejaVuSans-61"/>
     <use x="522.167969" xlink:href="#DejaVuSans-51"/>
    </g>
   </g>
  </g>
  <g id="text_28">
   <!-- Beta distribution -->
   <defs>
    <path d="M 19.671875 34.8125 
L 19.671875 8.109375 
L 35.5 8.109375 
Q 43.453125 8.109375 47.28125 11.40625 
Q 51.125 14.703125 51.125 21.484375 
Q 51.125 28.328125 47.28125 31.5625 
Q 43.453125 34.8125 35.5 34.8125 
z
M 19.671875 64.796875 
L 19.671875 42.828125 
L 34.28125 42.828125 
Q 41.5 42.828125 45.03125 45.53125 
Q 48.578125 48.25 48.578125 53.8125 
Q 48.578125 59.328125 45.03125 62.0625 
Q 41.5 64.796875 34.28125 64.796875 
z
M 9.8125 72.90625 
L 35.015625 72.90625 
Q 46.296875 72.90625 52.390625 68.21875 
Q 58.5 63.53125 58.5 54.890625 
Q 58.5 48.1875 55.375 44.234375 
Q 52.25 40.28125 46.1875 39.3125 
Q 53.46875 37.75 57.5 32.78125 
Q 61.53125 27.828125 61.53125 20.40625 
Q 61.53125 10.640625 54.890625 5.3125 
Q 48.25 0 35.984375 0 
L 9.8125 0 
z
" id="DejaVuSans-66"/>
    <path d="M 56.203125 29.59375 
L 56.203125 25.203125 
L 14.890625 25.203125 
Q 15.484375 15.921875 20.484375 11.0625 
Q 25.484375 6.203125 34.421875 6.203125 
Q 39.59375 6.203125 44.453125 7.46875 
Q 49.3125 8.734375 54.109375 11.28125 
L 54.109375 2.78125 
Q 49.265625 0.734375 44.1875 -0.34375 
Q 39.109375 -1.421875 33.890625 -1.421875 
Q 20.796875 -1.421875 13.15625 6.1875 
Q 5.515625 13.8125 5.515625 26.8125 
Q 5.515625 40.234375 12.765625 48.109375 
Q 20.015625 56 32.328125 56 
Q 43.359375 56 49.78125 48.890625 
Q 56.203125 41.796875 56.203125 29.59375 
z
M 47.21875 32.234375 
Q 47.125 39.59375 43.09375 43.984375 
Q 39.0625 48.390625 32.421875 48.390625 
Q 24.90625 48.390625 20.390625 44.140625 
Q 15.875 39.890625 15.1875 32.171875 
z
" id="DejaVuSans-101"/>
    <path d="M 18.3125 70.21875 
L 18.3125 54.6875 
L 36.8125 54.6875 
L 36.8125 47.703125 
L 18.3125 47.703125 
L 18.3125 18.015625 
Q 18.3125 11.328125 20.140625 9.421875 
Q 21.96875 7.515625 27.59375 7.515625 
L 36.8125 7.515625 
L 36.8125 0 
L 27.59375 0 
Q 17.1875 0 13.234375 3.875 
Q 9.28125 7.765625 9.28125 18.015625 
L 9.28125 47.703125 
L 2.6875 47.703125 
L 2.6875 54.6875 
L 9.28125 54.6875 
L 9.28125 70.21875 
z
" id="DejaVuSans-116"/>
    <path d="M 45.40625 46.390625 
L 45.40625 75.984375 
L 54.390625 75.984375 
L 54.390625 0 
L 45.40625 0 
L 45.40625 8.203125 
Q 42.578125 3.328125 38.25 0.953125 
Q 33.9375 -1.421875 27.875 -1.421875 
Q 17.96875 -1.421875 11.734375 6.484375 
Q 5.515625 14.40625 5.515625 27.296875 
Q 5.515625 40.1875 11.734375 48.09375 
Q 17.96875 56 27.875 56 
Q 33.9375 56 38.25 53.625 
Q 42.578125 51.265625 45.40625 46.390625 
z
M 14.796875 27.296875 
Q 14.796875 17.390625 18.875 11.75 
Q 22.953125 6.109375 30.078125 6.109375 
Q 37.203125 6.109375 41.296875 11.75 
Q 45.40625 17.390625 45.40625 27.296875 
Q 45.40625 37.203125 41.296875 42.84375 
Q 37.203125 48.484375 30.078125 48.484375 
Q 22.953125 48.484375 18.875 42.84375 
Q 14.796875 37.203125 14.796875 27.296875 
z
" id="DejaVuSans-100"/>
    <path d="M 9.421875 54.6875 
L 18.40625 54.6875 
L 18.40625 0 
L 9.421875 0 
z
M 9.421875 75.984375 
L 18.40625 75.984375 
L 18.40625 64.59375 
L 9.421875 64.59375 
z
" id="DejaVuSans-105"/>
    <path d="M 44.28125 53.078125 
L 44.28125 44.578125 
Q 40.484375 46.53125 36.375 47.5 
Q 32.28125 48.484375 27.875 48.484375 
Q 21.1875 48.484375 17.84375 46.4375 
Q 14.5 44.390625 14.5 40.28125 
Q 14.5 37.15625 16.890625 35.375 
Q 19.28125 33.59375 26.515625 31.984375 
L 29.59375 31.296875 
Q 39.15625 29.25 43.1875 25.515625 
Q 47.21875 21.78125 47.21875 15.09375 
Q 47.21875 7.46875 41.1875 3.015625 
Q 35.15625 -1.421875 24.609375 -1.421875 
Q 20.21875 -1.421875 15.453125 -0.5625 
Q 10.6875 0.296875 5.421875 2 
L 5.421875 11.28125 
Q 10.40625 8.6875 15.234375 7.390625 
Q 20.0625 6.109375 24.8125 6.109375 
Q 31.15625 6.109375 34.5625 8.28125 
Q 37.984375 10.453125 37.984375 14.40625 
Q 37.984375 18.0625 35.515625 20.015625 
Q 33.0625 21.96875 24.703125 23.78125 
L 21.578125 24.515625 
Q 13.234375 26.265625 9.515625 29.90625 
Q 5.8125 33.546875 5.8125 39.890625 
Q 5.8125 47.609375 11.28125 51.796875 
Q 16.75 56 26.8125 56 
Q 31.78125 56 36.171875 55.265625 
Q 40.578125 54.546875 44.28125 53.078125 
z
" id="DejaVuSans-115"/>
    <path d="M 41.109375 46.296875 
Q 39.59375 47.171875 37.8125 47.578125 
Q 36.03125 48 33.890625 48 
Q 26.265625 48 22.1875 43.046875 
Q 18.109375 38.09375 18.109375 28.8125 
L 18.109375 0 
L 9.078125 0 
L 9.078125 54.6875 
L 18.109375 54.6875 
L 18.109375 46.1875 
Q 20.953125 51.171875 25.484375 53.578125 
Q 30.03125 56 36.53125 56 
Q 37.453125 56 38.578125 55.875 
Q 39.703125 55.765625 41.0625 55.515625 
z
" id="DejaVuSans-114"/>
    <path d="M 8.5 21.578125 
L 8.5 54.6875 
L 17.484375 54.6875 
L 17.484375 21.921875 
Q 17.484375 14.15625 20.5 10.265625 
Q 23.53125 6.390625 29.59375 6.390625 
Q 36.859375 6.390625 41.078125 11.03125 
Q 45.3125 15.671875 45.3125 23.6875 
L 45.3125 54.6875 
L 54.296875 54.6875 
L 54.296875 0 
L 45.3125 0 
L 45.3125 8.40625 
Q 42.046875 3.421875 37.71875 1 
Q 33.40625 -1.421875 27.6875 -1.421875 
Q 18.265625 -1.421875 13.375 4.4375 
Q 8.5 10.296875 8.5 21.578125 
z
M 31.109375 56 
z
" id="DejaVuSans-117"/>
    <path d="M 30.609375 48.390625 
Q 23.390625 48.390625 19.1875 42.75 
Q 14.984375 37.109375 14.984375 27.296875 
Q 14.984375 17.484375 19.15625 11.84375 
Q 23.34375 6.203125 30.609375 6.203125 
Q 37.796875 6.203125 41.984375 11.859375 
Q 46.1875 17.53125 46.1875 27.296875 
Q 46.1875 37.015625 41.984375 42.703125 
Q 37.796875 48.390625 30.609375 48.390625 
z
M 30.609375 56 
Q 42.328125 56 49.015625 48.375 
Q 55.71875 40.765625 55.71875 27.296875 
Q 55.71875 13.875 49.015625 6.21875 
Q 42.328125 -1.421875 30.609375 -1.421875 
Q 18.84375 -1.421875 12.171875 6.21875 
Q 5.515625 13.875 5.515625 27.296875 
Q 5.515625 40.765625 12.171875 48.375 
Q 18.84375 56 30.609375 56 
z
" id="DejaVuSans-111"/>
    <path d="M 54.890625 33.015625 
L 54.890625 0 
L 45.90625 0 
L 45.90625 32.71875 
Q 45.90625 40.484375 42.875 44.328125 
Q 39.84375 48.1875 33.796875 48.1875 
Q 26.515625 48.1875 22.3125 43.546875 
Q 18.109375 38.921875 18.109375 30.90625 
L 18.109375 0 
L 9.078125 0 
L 9.078125 54.6875 
L 18.109375 54.6875 
L 18.109375 46.1875 
Q 21.34375 51.125 25.703125 53.5625 
Q 30.078125 56 35.796875 56 
Q 45.21875 56 50.046875 50.171875 
Q 54.890625 44.34375 54.890625 33.015625 
z
" id="DejaVuSans-110"/>
   </defs>
   <g transform="translate(418.064062 14.878125)scale(0.12 -0.12)">
    <use xlink:href="#DejaVuSans-66"/>
    <use x="68.603516" xlink:href="#DejaVuSans-101"/>
    <use x="130.126953" xlink:href="#DejaVuSans-116"/>
    <use x="169.335938" xlink:href="#DejaVuSans-97"/>
    <use x="230.615234" xlink:href="#DejaVuSans-32"/>
    <use x="262.402344" xlink:href="#DejaVuSans-100"/>
    <use x="325.878906" xlink:href="#DejaVuSans-105"/>
    <use x="353.662109" xlink:href="#DejaVuSans-115"/>
    <use x="405.761719" xlink:href="#DejaVuSans-116"/>
    <use x="444.970703" xlink:href="#DejaVuSans-114"/>
    <use x="486.083984" xlink:href="#DejaVuSans-105"/>
    <use x="513.867188" xlink:href="#DejaVuSans-98"/>
    <use x="577.34375" xlink:href="#DejaVuSans-117"/>
    <use x="640.722656" xlink:href="#DejaVuSans-116"/>
    <use x="679.931641" xlink:href="#DejaVuSans-105"/>
    <use x="707.714844" xlink:href="#DejaVuSans-111"/>
    <use x="768.896484" xlink:href="#DejaVuSans-110"/>
   </g>
  </g>
 </g>
 <defs>
  <clipPath id="pff5b56b08e">
   <rect height="221.76" width="125.068966" x="117" y="34.56"/>
  </clipPath>
  <clipPath id="p25b90df5b9">
   <rect height="221.76" width="125.068966" x="267.082759" y="34.56"/>
  </clipPath>
  <clipPath id="p62b6cae534">
   <rect height="221.76" width="125.068966" x="417.165517" y="34.56"/>
  </clipPath>
  <clipPath id="p340e121347">
   <rect height="221.76" width="125.068966" x="567.248276" y="34.56"/>
  </clipPath>
  <clipPath id="p710bbdd5da">
   <rect height="221.76" width="125.068966" x="717.331034" y="34.56"/>
  </clipPath>
 </defs>
</svg>
