<?xml version="1.0" encoding="UTF-8" standalone="no"?>
<!-- Created with Inkscape (http://www.inkscape.org/) -->

<svg
   xmlns:dc="http://purl.org/dc/elements/1.1/"
   xmlns:cc="http://creativecommons.org/ns#"
   xmlns:rdf="http://www.w3.org/1999/02/22-rdf-syntax-ns#"
   xmlns:svg="http://www.w3.org/2000/svg"
   xmlns="http://www.w3.org/2000/svg"
   xmlns:xlink="http://www.w3.org/1999/xlink"
   xmlns:sodipodi="http://sodipodi.sourceforge.net/DTD/sodipodi-0.dtd"
   xmlns:inkscape="http://www.inkscape.org/namespaces/inkscape"
   width="210mm"
   height="297mm"
   viewBox="0 0 210 297"
   version="1.1"
   id="svg12664"
   inkscape:version="0.92.2 5c3e80d, 2017-08-06"
   sodipodi:docname="3_module.svg">
  <sodipodi:namedview
     id="base"
     pagecolor="#ffffff"
     bordercolor="#666666"
     borderopacity="1.0"
     inkscape:pageopacity="0.0"
     inkscape:pageshadow="2"
     inkscape:zoom="1"
     inkscape:cx="108.97753"
     inkscape:cy="756.34472"
     inkscape:document-units="mm"
     inkscape:current-layer="layer1"
     showgrid="false"
     inkscape:window-width="1920"
     inkscape:window-height="1031"
     inkscape:window-x="-1"
     inkscape:window-y="4"
     inkscape:window-maximized="0"
     inkscape:object-nodes="false"
     inkscape:snap-nodes="false" />
  <defs
     id="defs12658">
    <symbol
       id="Process">
      <title
         id="title15132">Process</title>
      <desc
         id="desc15134">Any processing function.</desc>
      <rect
         x="3.96875"
         y="9.260417"
         width="31.75"
         height="21.166666"
         style="stroke-width:0.52916664"
         id="rect15136" />
    </symbol>
    <symbol
       id="DownArrow">
      <title
         id="title14614">Down Arrow</title>
      <path
         inkscape:connector-curvature="0"
         d="M 9.525,16.66875 3.7041667,10.847917 V 6.8791667 L 7.9375,11.1125 V 2.6458333 h 3.175 V 11.1125 l 4.233333,-4.2333333 v 3.9687503 z"
         style="stroke:none;stroke-width:0.26458332"
         id="path14616" />
    </symbol>
  </defs>
  <metadata
     id="metadata12661">
    <rdf:RDF>
      <cc:Work
         rdf:about="">
        <dc:format>image/svg+xml</dc:format>
        <dc:type
           rdf:resource="http://purl.org/dc/dcmitype/StillImage" />
        <dc:title></dc:title>
      </cc:Work>
    </rdf:RDF>
  </metadata>
  <g
     inkscape:label="Layer 1"
     inkscape:groupmode="layer"
     id="layer1">
    <use
       id="use17302"
       style="fill:#deaa87;stroke:#000000"
       xlink:href="#Process"
       x="0"
       y="0"
       width="100%"
       height="100%"
       transform="translate(54.995536,38.275298)" />
    <use
       id="use18912"
       style="fill:#000080;stroke:#000000"
       xlink:href="#DownArrow"
       x="0"
       y="0"
       width="100%"
       height="100%"
       transform="matrix(0.44805193,0,0,0.44805193,60.366234,39.519183)" />
    <use
       id="use18912-8"
       style="fill:#000080;stroke:#000000"
       xlink:href="#DownArrow"
       x="0"
       y="0"
       width="100%"
       height="100%"
       transform="matrix(0.44805193,0,0,0.44805193,60.366234,68.155174)" />
    <use
       id="use18912-8-5"
       style="fill:#ff0000;stroke:#000000"
       xlink:href="#DownArrow"
       x="0"
       y="0"
       width="100%"
       height="100%"
       transform="matrix(-0.44792972,0.01046385,-0.01046385,-0.44792972,87.325449,47.968028)" />
    <use
       id="use18912-8-5-3"
       style="fill:#ff0000;stroke:#000000"
       xlink:href="#DownArrow"
       x="0"
       y="0"
       width="100%"
       height="100%"
       transform="matrix(-0.44792971,0.01046385,-0.01046385,-0.44792971,87.892015,77.11573)"
       inkscape:transform-center-x="-3.5907738"
       inkscape:transform-center-y="-34.017857" />
    <use
       id="use18912-8-5-3-1"
       style="fill:#88aa00;stroke:#000000"
       xlink:href="#DownArrow"
       x="0"
       y="0"
       width="100%"
       height="100%"
       transform="matrix(0.00417761,-0.44803243,0.44803243,0.00417761,90.611009,62.745492)"
       inkscape:transform-center-x="-0.18560174"
       inkscape:transform-center-y="-0.12122856" />
    <text
       xml:space="preserve"
       style="font-style:normal;font-weight:normal;font-size:4.93888855px;line-height:1.25;font-family:sans-serif;letter-spacing:0px;word-spacing:0px;fill:#000080;fill-opacity:1;stroke:none;stroke-width:0.26458332;"
       x="53.710419"
       y="37.972919"
       id="text18985"><tspan
         sodipodi:role="line"
         id="tspan18983"
         x="53.710419"
         y="37.972919"
         style="stroke-width:0.26458332;fill:#000080;">input: x</tspan></text>
    <text
       xml:space="preserve"
       style="font-style:normal;font-weight:normal;font-size:4.93888855px;line-height:1.25;font-family:sans-serif;letter-spacing:0px;word-spacing:0px;fill:#000080;fill-opacity:1;stroke:none;stroke-width:0.26458332;"
       x="48.947918"
       y="81.629166"
       id="text18989"><tspan
         sodipodi:role="line"
         id="tspan18987"
         x="48.947918"
         y="81.629166"
         style="stroke-width:0.26458332;fill:#000080;">output: y</tspan></text>
    <g
       id="g19084"
       transform="matrix(0.642594,0,0,0.642594,24.308985,-28.701329)"
       style="fill:#ff0000">
      <g
         word-spacing="normal"
         letter-spacing="normal"
         font-size-adjust="none"
         font-stretch="normal"
         font-weight="normal"
         font-variant="normal"
         font-style="normal"
         stroke-miterlimit="10.433"
         xml:space="preserve"
         transform="matrix(0.3,0,0,-0.3,-52.5,222.75)"
         id="content"
         style="font-style:normal;font-variant:normal;font-weight:normal;font-stretch:normal;letter-spacing:normal;word-spacing:normal;text-anchor:start;fill:#ff0000;fill-opacity:1;fill-rule:evenodd;stroke:#000000;stroke-linecap:butt;stroke-linejoin:miter;stroke-miterlimit:10.43299961;stroke-dasharray:none;stroke-dashoffset:0;stroke-opacity:1"><path
           id="path19073"
           d="m 479.82,437.54 -0.05,0.19 -0.06,0.19 -0.06,0.19 -0.07,0.19 -0.07,0.19 -0.09,0.18 -0.08,0.18 -0.1,0.19 -0.11,0.17 -0.11,0.18 -0.12,0.17 -0.12,0.17 -0.14,0.16 -0.14,0.16 -0.15,0.16 -0.15,0.14 -0.17,0.15 -0.17,0.13 -0.19,0.13 -0.19,0.12 -0.2,0.12 -0.21,0.11 -0.21,0.09 -0.23,0.09 -0.23,0.08 -0.25,0.08 -0.25,0.06 -0.27,0.05 -0.27,0.04 -0.28,0.03 -0.29,0.02 h -0.3 l 0.12,-0.98 c 3.39,0 4.5,-2.64 4.5,-4.74 0,-2.32 -2.26,-9.75 -8.11,-9.75 v 0 c -3.93,0 -4.39,2.96 -4.39,4.03 0,1.36 0.94,4.79 1.28,5.66 0.63,1.59 2.8,4.8 6.72,4.8 l -0.12,0.98 c -4.89,0 -8.92,-3.65 -10.19,-6.79 -0.2,-0.6 -0.69,-2.02 -0.69,-3.43 0,-2.39 1.88,-6.37 7.32,-6.37 9.03,0 12.68,11.26 12.68,16.2 0,5.97 -3.9,9.38 -8.57,9.38 -5.68,0 -7.25,-4.53 -7.25,-5.61 0,-0.28 0.18,-1.25 1.4,-1.25 1.22,0 1.94,1.08 1.94,1.92 0,0.94 -0.69,1.25 -1.34,1.31 1.73,2.63 4.59,2.63 5.18,2.63 2.61,0 5.72,-1.64 5.72,-6.6 0,-1.5 -0.19,-2.72 -0.84,-5.5 z"
           inkscape:connector-curvature="0"
           style="fill:#ff0000;stroke-width:0" /><path
           id="path19075"
           d="m 499.28,446.7 0.03,0.12 0.02,0.11 0.03,0.1 0.03,0.1 0.03,0.1 0.03,0.09 0.04,0.08 0.04,0.08 0.04,0.08 0.04,0.07 0.05,0.07 0.06,0.06 0.06,0.06 0.07,0.06 0.07,0.05 0.09,0.05 0.09,0.04 0.1,0.04 0.11,0.04 0.12,0.03 0.06,0.02 0.07,0.01 0.07,0.02 0.07,0.01 0.08,0.01 0.08,0.01 0.08,0.02 0.09,0.01 h 0.09 l 0.09,0.01 0.1,0.01 0.09,0.01 0.11,0.01 h 0.1 l 0.12,0.01 h 0.11 l 0.12,0.01 h 0.12 0.13 0.13 l 0.13,0.01 h 0.14 0.14 0.15 c 1.08,0 1.42,0 1.42,0.76 0,0.04 -0.03,0.49 -0.59,0.49 -0.8,0 -1.73,-0.06 -2.58,-0.11 -0.87,-0.03 -1.9,-0.03 -2.78,-0.03 -0.73,0 -1.67,0.03 -2.41,0.03 -0.73,0 -1.56,0.11 -2.26,0.11 -0.2,0 -0.74,0 -0.74,-0.77 0,-0.48 0.43,-0.48 1.13,-0.48 0.03,0 0.69,0 1.31,-0.08 0.74,-0.06 0.81,-0.14 0.81,-0.48 0,-0.07 0,-0.24 -0.14,-0.77 l -4.64,-18.5 c -0.31,-1.19 -0.39,-1.47 -3.06,-1.47 -0.59,0 -1.05,0 -1.05,-0.73 0,-0.52 0.43,-0.52 1.05,-0.52 h 17.52 c 0.87,0 0.9,0.03 1.18,0.7 0.36,0.94 2.97,7.69 2.97,7.97 0,0.11 -0.08,0.5 -0.59,0.5 -0.42,0 -0.49,-0.18 -0.7,-0.73 -1.32,-3.31 -2.86,-7.19 -9.24,-7.19 h -3.94 c -1.07,0 -1.11,0.05 -1.11,0.36 0,0.03 0,0.2 0.15,0.72 z"
           inkscape:connector-curvature="0"
           style="fill:#ff0000;stroke-width:0" /><polyline
           id="polyline19077"
           points="462,418 512.76,418 512.76,420.04 462,420.04 "
           style="fill:#ff0000;fill-rule:nonzero;stroke-width:0" /><path
           id="path19079"
           d="m 482.22,400.82 -0.05,0.19 -0.05,0.19 -0.07,0.19 -0.07,0.19 -0.07,0.18 -0.08,0.19 -0.09,0.18 -0.1,0.18 -0.1,0.18 -0.11,0.18 -0.12,0.17 -0.13,0.17 -0.13,0.16 -0.14,0.16 -0.15,0.15 -0.16,0.15 -0.17,0.14 -0.17,0.14 -0.19,0.13 -0.19,0.12 -0.2,0.12 -0.2,0.1 -0.22,0.1 -0.23,0.09 -0.23,0.08 -0.25,0.07 -0.25,0.06 -0.26,0.06 -0.27,0.04 -0.29,0.03 -0.29,0.01 -0.3,0.01 0.13,-0.98 c 3.39,0 4.5,-2.65 4.5,-4.74 0,-2.33 -2.27,-9.75 -8.11,-9.75 v 0 c -3.94,0 -4.39,2.95 -4.39,4.03 0,1.36 0.93,4.78 1.28,5.66 0.62,1.59 2.79,4.8 6.72,4.8 l -0.13,0.98 c -4.89,0 -8.92,-3.66 -10.19,-6.8 -0.2,-0.59 -0.68,-2.01 -0.68,-3.42 0,-2.39 1.87,-6.37 7.31,-6.37 9.03,0 12.69,11.26 12.69,16.2 0,5.97 -3.91,9.37 -8.58,9.37 -5.67,0 -7.25,-4.53 -7.25,-5.61 0,-0.28 0.19,-1.25 1.4,-1.25 1.22,0 1.94,1.08 1.94,1.93 0,0.93 -0.69,1.25 -1.34,1.31 1.73,2.62 4.59,2.62 5.19,2.62 2.6,0 5.71,-1.64 5.71,-6.59 0,-1.5 -0.18,-2.72 -0.84,-5.5 z"
           inkscape:connector-curvature="0"
           style="fill:#ff0000;stroke-width:0" /><path
           id="path19081"
           d="m 495.99,392.73 -0.04,-0.11 -0.04,-0.12 -0.04,-0.12 -0.05,-0.12 -0.05,-0.13 -0.06,-0.12 -0.06,-0.13 -0.07,-0.13 -0.07,-0.12 -0.08,-0.13 -0.08,-0.13 -0.08,-0.13 -0.09,-0.12 -0.09,-0.13 -0.1,-0.12 -0.1,-0.11 -0.11,-0.12 -0.11,-0.11 -0.11,-0.1 -0.12,-0.11 -0.12,-0.09 -0.13,-0.09 -0.13,-0.09 -0.13,-0.07 -0.14,-0.07 -0.14,-0.06 -0.14,-0.06 -0.15,-0.04 -0.16,-0.04 -0.15,-0.02 -0.16,-0.02 -0.17,-0.01 c -0.11,0 -1.15,0 -1.89,0.49 1.44,0.45 1.53,1.72 1.53,1.92 0,0.77 -0.59,1.3 -1.39,1.3 -0.97,0 -1.98,-0.85 -1.98,-2.14 0,-1.74 1.95,-2.53 3.65,-2.53 1.61,0 3.04,1 3.91,2.46 0.83,-1.84 2.75,-2.46 4.14,-2.46 4.02,0 6.14,4.34 6.14,5.32 0,0.46 -0.45,0.46 -0.56,0.46 -0.48,0 -0.52,-0.18 -0.66,-0.6 -0.73,-2.4 -2.82,-4.22 -4.78,-4.22 -1.39,0 -2.12,0.94 -2.12,2.27 0,0.91 0.84,4.08 1.81,7.95 0.7,2.67 2.27,3.55 3.42,3.55 0.06,0 1.14,0 1.88,-0.48 -1.11,-0.32 -1.53,-1.3 -1.53,-1.93 0,-0.76 0.59,-1.28 1.39,-1.28 0.81,0 1.95,0.66 1.95,2.13 0,1.95 -2.24,2.53 -3.63,2.53 -1.73,0 -3.14,-1.14 -3.9,-2.47 -0.63,1.44 -2.22,2.47 -4.17,2.47 -3.91,0 -6.14,-4.28 -6.14,-5.33 0,-0.45 0.5,-0.45 0.59,-0.45 0.45,0 0.48,0.14 0.67,0.59 0.86,2.72 3.06,4.22 4.77,4.22 1.15,0 2.09,-0.63 2.09,-2.3 0,-0.7 -0.42,-2.43 -0.73,-3.62 z"
           inkscape:connector-curvature="0"
           style="fill:#ff0000;stroke-width:0" /></g>    </g>
    <g
       id="g19154"
       transform="matrix(0.642594,0,0,0.642594,25.216407,21.757068)"
       style="fill:#ff0000">
      <g
         id="g19152"
         transform="matrix(0.3,0,0,-0.3,-52.5,222.75)"
         xml:space="preserve"
         stroke-miterlimit="10.433"
         font-style="normal"
         font-variant="normal"
         font-weight="normal"
         font-stretch="normal"
         font-size-adjust="none"
         letter-spacing="normal"
         word-spacing="normal"
         style="font-style:normal;font-variant:normal;font-weight:normal;font-stretch:normal;letter-spacing:normal;word-spacing:normal;text-anchor:start;fill:#ff0000;fill-opacity:1;fill-rule:evenodd;stroke:#000000;stroke-linecap:butt;stroke-linejoin:miter;stroke-miterlimit:10.43299961;stroke-dasharray:none;stroke-dashoffset:0;stroke-opacity:1"><path
           d="m 479.82,437.54 -0.05,0.19 -0.06,0.19 -0.06,0.19 -0.07,0.19 -0.07,0.19 -0.09,0.18 -0.08,0.18 -0.1,0.19 -0.11,0.17 -0.11,0.18 -0.12,0.17 -0.12,0.17 -0.14,0.16 -0.14,0.16 -0.15,0.16 -0.15,0.14 -0.17,0.15 -0.17,0.13 -0.19,0.13 -0.19,0.12 -0.2,0.12 -0.21,0.11 -0.21,0.09 -0.23,0.09 -0.23,0.08 -0.25,0.08 -0.25,0.06 -0.27,0.05 -0.27,0.04 -0.28,0.03 -0.29,0.02 h -0.3 l 0.12,-0.98 c 3.39,0 4.5,-2.64 4.5,-4.74 0,-2.32 -2.26,-9.75 -8.11,-9.75 v 0 c -3.93,0 -4.39,2.96 -4.39,4.03 0,1.36 0.94,4.79 1.28,5.66 0.63,1.59 2.8,4.8 6.72,4.8 l -0.12,0.98 c -4.89,0 -8.92,-3.65 -10.19,-6.79 -0.2,-0.6 -0.69,-2.02 -0.69,-3.43 0,-2.39 1.88,-6.37 7.32,-6.37 9.03,0 12.68,11.26 12.68,16.2 0,5.97 -3.9,9.38 -8.57,9.38 -5.68,0 -7.25,-4.53 -7.25,-5.61 0,-0.28 0.18,-1.25 1.4,-1.25 1.22,0 1.94,1.08 1.94,1.92 0,0.94 -0.69,1.25 -1.34,1.31 1.73,2.63 4.59,2.63 5.18,2.63 2.61,0 5.72,-1.64 5.72,-6.6 0,-1.5 -0.19,-2.72 -0.84,-5.5 z"
           id="path19142"
           inkscape:connector-curvature="0"
           style="fill:#ff0000;stroke-width:0" /><path
           d="m 499.28,446.7 0.03,0.12 0.02,0.11 0.03,0.1 0.03,0.1 0.03,0.1 0.03,0.09 0.04,0.08 0.04,0.08 0.04,0.08 0.04,0.07 0.05,0.07 0.06,0.06 0.06,0.06 0.07,0.06 0.07,0.05 0.09,0.05 0.09,0.04 0.1,0.04 0.11,0.04 0.12,0.03 0.06,0.02 0.07,0.01 0.07,0.02 0.07,0.01 0.08,0.01 0.08,0.01 0.08,0.02 0.09,0.01 h 0.09 l 0.09,0.01 0.1,0.01 0.09,0.01 0.11,0.01 h 0.1 l 0.12,0.01 h 0.11 l 0.12,0.01 h 0.12 0.13 0.13 l 0.13,0.01 h 0.14 0.14 0.15 c 1.08,0 1.42,0 1.42,0.76 0,0.04 -0.03,0.49 -0.59,0.49 -0.8,0 -1.73,-0.06 -2.58,-0.11 -0.87,-0.03 -1.9,-0.03 -2.78,-0.03 -0.73,0 -1.67,0.03 -2.41,0.03 -0.73,0 -1.56,0.11 -2.26,0.11 -0.2,0 -0.74,0 -0.74,-0.77 0,-0.48 0.43,-0.48 1.13,-0.48 0.03,0 0.69,0 1.31,-0.08 0.74,-0.06 0.81,-0.14 0.81,-0.48 0,-0.07 0,-0.24 -0.14,-0.77 l -4.64,-18.5 c -0.31,-1.19 -0.39,-1.47 -3.06,-1.47 -0.59,0 -1.05,0 -1.05,-0.73 0,-0.52 0.43,-0.52 1.05,-0.52 h 17.52 c 0.87,0 0.9,0.03 1.18,0.7 0.36,0.94 2.97,7.69 2.97,7.97 0,0.11 -0.08,0.5 -0.59,0.5 -0.42,0 -0.49,-0.18 -0.7,-0.73 -1.32,-3.31 -2.86,-7.19 -9.24,-7.19 h -3.94 c -1.07,0 -1.11,0.05 -1.11,0.36 0,0.03 0,0.2 0.15,0.72 z"
           id="path19144"
           inkscape:connector-curvature="0"
           style="fill:#ff0000;stroke-width:0" /><polyline
           points="462,418 512.76,418 512.76,420.04 462,420.04 "
           id="polyline19146"
           style="fill:#ff0000;fill-rule:nonzero;stroke-width:0" /><path
           d="m 482.7,400.82 -0.05,0.19 -0.06,0.19 -0.06,0.19 -0.07,0.19 -0.07,0.18 -0.09,0.19 -0.09,0.18 -0.09,0.18 -0.11,0.18 -0.11,0.18 -0.12,0.17 -0.12,0.17 -0.14,0.16 -0.14,0.16 -0.15,0.15 -0.16,0.15 -0.16,0.14 -0.18,0.14 -0.18,0.13 -0.19,0.12 -0.2,0.12 -0.21,0.1 -0.21,0.1 -0.23,0.09 -0.24,0.08 -0.24,0.07 -0.25,0.06 -0.27,0.06 -0.27,0.04 -0.28,0.03 -0.29,0.01 -0.3,0.01 0.12,-0.98 c 3.39,0 4.5,-2.65 4.5,-4.74 0,-2.33 -2.26,-9.75 -8.11,-9.75 v 0 c -3.93,0 -4.39,2.95 -4.39,4.03 0,1.36 0.94,4.78 1.28,5.66 0.63,1.59 2.8,4.8 6.72,4.8 l -0.12,0.98 c -4.89,0 -8.92,-3.66 -10.19,-6.8 -0.2,-0.59 -0.69,-2.01 -0.69,-3.42 0,-2.39 1.88,-6.37 7.31,-6.37 9.04,0 12.69,11.26 12.69,16.2 0,5.97 -3.9,9.37 -8.58,9.37 -5.67,0 -7.25,-4.53 -7.25,-5.61 0,-0.28 0.19,-1.25 1.41,-1.25 1.22,0 1.94,1.08 1.94,1.93 0,0.93 -0.69,1.25 -1.35,1.31 1.74,2.62 4.6,2.62 5.19,2.62 2.61,0 5.72,-1.64 5.72,-6.59 0,-1.5 -0.19,-2.72 -0.84,-5.5 z"
           id="path19148"
           inkscape:connector-curvature="0"
           style="fill:#ff0000;stroke-width:0" /><path
           d="m 507.17,402.18 0.01,0.02 v 0.02 l 0.01,0.03 0.01,0.02 v 0.02 l 0.01,0.02 0.01,0.03 0.01,0.04 0.01,0.03 0.01,0.03 v 0.03 l 0.01,0.03 0.01,0.03 v 0.02 l 0.01,0.03 v 0.02 l 0.01,0.02 v 0.02 l 0.01,0.02 v 0.02 0.02 0.02 l 0.01,0.01 v 0.04 0.03 0.03 0.04 0.02 0.02 0.02 0.02 c 0,0.68 -0.56,1.1 -1.15,1.1 -0.38,0 -1.05,-0.17 -1.43,-0.82 -0.11,-0.22 -0.39,-1.33 -0.56,-2.03 l -0.73,-2.9 c -0.21,-0.82 -1.28,-5.21 -1.39,-5.6 -0.03,0 -1.57,-3.04 -4.28,-3.04 -2.38,0 -2.38,2.27 -2.38,2.89 0,1.9 0.8,4.08 1.84,6.77 0.43,1.11 0.6,1.53 0.6,2.13 0,1.67 -1.42,2.95 -3.31,2.95 -3.52,0 -5.08,-4.74 -5.08,-5.33 0,-0.45 0.48,-0.45 0.59,-0.45 0.49,0 0.52,0.17 0.63,0.56 0.87,2.89 2.37,4.25 3.76,4.25 0.6,0 0.86,-0.39 0.86,-1.22 0,-0.8 -0.31,-1.56 -0.48,-2.01 -1.68,-4.25 -2.02,-5.55 -2.02,-7.08 0,-0.6 0,-2.24 1.36,-3.35 1.08,-0.9 2.55,-1.07 3.48,-1.07 1.4,0 2.65,0.51 3.8,1.56 -0.45,-1.92 -0.84,-3.38 -2.3,-5.13 -0.93,-1.08 -2.34,-2.22 -4.18,-2.22 -0.24,0 -1.88,0 -2.61,1.14 1.87,0.21 1.87,1.9 1.87,1.93 0,1.11 -1,1.31 -1.36,1.31 -0.86,0 -2.01,-0.69 -2.01,-2.3 0,-1.76 1.67,-3.06 4.14,-3.06 3.53,0 7.81,2.72 8.89,7.08 z"
           id="path19150"
           inkscape:connector-curvature="0"
           style="fill:#ff0000;stroke-width:0" /></g>    </g>
    <g
       id="g19238"
       transform="matrix(0.60362049,0,0,0.60362049,47.734718,0.1125415)"
       style="fill:#88aa00">
      <g
         word-spacing="normal"
         letter-spacing="normal"
         font-size-adjust="none"
         font-stretch="normal"
         font-weight="normal"
         font-variant="normal"
         font-style="normal"
         stroke-miterlimit="10.433"
         xml:space="preserve"
         transform="matrix(0.3,0,0,-0.3,-52.5,222.75)"
         id="g19236"
         style="font-style:normal;font-variant:normal;font-weight:normal;font-stretch:normal;letter-spacing:normal;word-spacing:normal;text-anchor:start;fill:#88aa00;fill-opacity:1;fill-rule:evenodd;stroke:#000000;stroke-linecap:butt;stroke-linejoin:miter;stroke-miterlimit:10.43299961;stroke-dasharray:none;stroke-dashoffset:0;stroke-opacity:1"><path
           id="path19226"
           d="m 479.82,437.54 -0.05,0.19 -0.06,0.19 -0.06,0.19 -0.07,0.19 -0.07,0.19 -0.09,0.18 -0.08,0.18 -0.1,0.19 -0.11,0.17 -0.11,0.18 -0.12,0.17 -0.12,0.17 -0.14,0.16 -0.14,0.16 -0.15,0.16 -0.15,0.14 -0.17,0.15 -0.17,0.13 -0.19,0.13 -0.19,0.12 -0.2,0.12 -0.21,0.11 -0.21,0.09 -0.23,0.09 -0.23,0.08 -0.25,0.08 -0.25,0.06 -0.27,0.05 -0.27,0.04 -0.28,0.03 -0.29,0.02 h -0.3 l 0.12,-0.98 c 3.39,0 4.5,-2.64 4.5,-4.74 0,-2.32 -2.26,-9.75 -8.11,-9.75 v 0 c -3.93,0 -4.39,2.96 -4.39,4.03 0,1.36 0.94,4.79 1.28,5.66 0.63,1.59 2.8,4.8 6.72,4.8 l -0.12,0.98 c -4.89,0 -8.92,-3.65 -10.19,-6.79 -0.2,-0.6 -0.69,-2.02 -0.69,-3.43 0,-2.39 1.88,-6.37 7.32,-6.37 9.03,0 12.68,11.26 12.68,16.2 0,5.97 -3.9,9.38 -8.57,9.38 -5.68,0 -7.25,-4.53 -7.25,-5.61 0,-0.28 0.18,-1.25 1.4,-1.25 1.22,0 1.94,1.08 1.94,1.92 0,0.94 -0.69,1.25 -1.34,1.31 1.73,2.63 4.59,2.63 5.18,2.63 2.61,0 5.72,-1.64 5.72,-6.6 0,-1.5 -0.19,-2.72 -0.84,-5.5 z"
           inkscape:connector-curvature="0"
           style="fill:#88aa00;stroke-width:0" /><path
           id="path19228"
           d="m 499.28,446.7 0.03,0.12 0.02,0.11 0.03,0.1 0.03,0.1 0.03,0.1 0.03,0.09 0.04,0.08 0.04,0.08 0.04,0.08 0.04,0.07 0.05,0.07 0.06,0.06 0.06,0.06 0.07,0.06 0.07,0.05 0.09,0.05 0.09,0.04 0.1,0.04 0.11,0.04 0.12,0.03 0.06,0.02 0.07,0.01 0.07,0.02 0.07,0.01 0.08,0.01 0.08,0.01 0.08,0.02 0.09,0.01 h 0.09 l 0.09,0.01 0.1,0.01 0.09,0.01 0.11,0.01 h 0.1 l 0.12,0.01 h 0.11 l 0.12,0.01 h 0.12 0.13 0.13 l 0.13,0.01 h 0.14 0.14 0.15 c 1.08,0 1.42,0 1.42,0.76 0,0.04 -0.03,0.49 -0.59,0.49 -0.8,0 -1.73,-0.06 -2.58,-0.11 -0.87,-0.03 -1.9,-0.03 -2.78,-0.03 -0.73,0 -1.67,0.03 -2.41,0.03 -0.73,0 -1.56,0.11 -2.26,0.11 -0.2,0 -0.74,0 -0.74,-0.77 0,-0.48 0.43,-0.48 1.13,-0.48 0.03,0 0.69,0 1.31,-0.08 0.74,-0.06 0.81,-0.14 0.81,-0.48 0,-0.07 0,-0.24 -0.14,-0.77 l -4.64,-18.5 c -0.31,-1.19 -0.39,-1.47 -3.06,-1.47 -0.59,0 -1.05,0 -1.05,-0.73 0,-0.52 0.43,-0.52 1.05,-0.52 h 17.52 c 0.87,0 0.9,0.03 1.18,0.7 0.36,0.94 2.97,7.69 2.97,7.97 0,0.11 -0.08,0.5 -0.59,0.5 -0.42,0 -0.49,-0.18 -0.7,-0.73 -1.32,-3.31 -2.86,-7.19 -9.24,-7.19 h -3.94 c -1.07,0 -1.11,0.05 -1.11,0.36 0,0.03 0,0.2 0.15,0.72 z"
           inkscape:connector-curvature="0"
           style="fill:#88aa00;stroke-width:0" /><polyline
           id="polyline19230"
           points="462,418 512.76,418 512.76,420.04 462,420.04 "
           style="fill:#88aa00;fill-rule:nonzero;stroke-width:0" /><path
           id="path19232"
           d="m 483.42,400.82 -0.05,0.19 -0.06,0.19 -0.06,0.19 -0.07,0.19 -0.07,0.18 -0.08,0.19 -0.09,0.18 -0.1,0.18 -0.1,0.18 -0.11,0.18 -0.12,0.17 -0.13,0.17 -0.13,0.16 -0.15,0.16 -0.15,0.15 -0.15,0.15 -0.17,0.14 -0.17,0.14 -0.19,0.13 -0.19,0.12 -0.2,0.12 -0.2,0.1 -0.22,0.1 -0.23,0.09 -0.23,0.08 -0.25,0.07 -0.25,0.06 -0.26,0.06 -0.28,0.04 -0.28,0.03 -0.29,0.01 -0.3,0.01 0.12,-0.98 c 3.4,0 4.5,-2.65 4.5,-4.74 0,-2.33 -2.26,-9.75 -8.1,-9.75 v 0 c -3.94,0 -4.4,2.95 -4.4,4.03 0,1.36 0.94,4.78 1.29,5.66 0.62,1.59 2.79,4.8 6.71,4.8 l -0.12,0.98 c -4.89,0 -8.92,-3.66 -10.19,-6.8 -0.2,-0.59 -0.69,-2.01 -0.69,-3.42 0,-2.39 1.88,-6.37 7.32,-6.37 9.03,0 12.68,11.26 12.68,16.2 0,5.97 -3.9,9.37 -8.57,9.37 -5.68,0 -7.25,-4.53 -7.25,-5.61 0,-0.28 0.18,-1.25 1.4,-1.25 1.22,0 1.94,1.08 1.94,1.93 0,0.93 -0.69,1.25 -1.34,1.31 1.73,2.62 4.59,2.62 5.18,2.62 2.61,0 5.72,-1.64 5.72,-6.59 0,-1.5 -0.18,-2.72 -0.84,-5.5 z"
           inkscape:connector-curvature="0"
           style="fill:#88aa00;stroke-width:0" /><path
           id="path19234"
           d="m 506.33,406.01 v 0.34 l -0.01,0.35 -0.03,0.34 -0.03,0.34 -0.03,0.34 -0.05,0.34 -0.06,0.34 -0.06,0.33 -0.07,0.33 -0.09,0.32 -0.09,0.32 -0.1,0.31 -0.11,0.3 -0.13,0.29 -0.13,0.29 -0.14,0.27 -0.15,0.26 -0.16,0.26 -0.17,0.23 -0.18,0.23 -0.19,0.21 -0.2,0.2 -0.22,0.19 -0.22,0.16 -0.24,0.15 -0.24,0.14 -0.26,0.11 -0.27,0.1 -0.27,0.07 -0.29,0.06 -0.31,0.03 -0.31,0.01 -0.03,-0.97 c 2.22,0 2.22,-3.87 2.22,-4.53 0,-1.36 -0.28,-3.39 -1,-6.31 h -8.07 c 1.79,7.53 4.79,10.84 6.85,10.84 l 0.03,0.97 c -5.23,0 -10.81,-9.34 -10.81,-17.31 0,-4.16 1.61,-7.56 4.81,-7.56 l 0.03,0.96 c -1.91,0 -2.22,2.66 -2.22,4.54 0,2.29 0.66,5.01 1,6.31 h 8.06 c -0.98,-3.8 -1.78,-5.69 -2.82,-7.39 -1.08,-1.82 -2.47,-3.46 -4.02,-3.46 l -0.03,-0.96 c 5.3,0 10.81,9.51 10.81,17.31 z"
           inkscape:connector-curvature="0"
           style="fill:#88aa00;stroke-width:0" /></g>    </g>
    <use
       id="use18912-8-5-2"
       style="fill:#ff0000;stroke:#000000"
       xlink:href="#DownArrow"
       x="0"
       y="0"
       width="100%"
       height="100%"
       transform="matrix(-0.01046385,-0.44792971,0.44792971,-0.01046385,93.41345,37.834253)" />
    <use
       id="use18912-82"
       style="fill:#000080;stroke:#000000"
       xlink:href="#DownArrow"
       x="0"
       y="0"
       width="100%"
       height="100%"
       transform="matrix(0,-0.44805193,0.44805193,0,93.29685,29.672893)" />
    <use
       id="use18912-8-5-3-1-4"
       style="fill:#88aa00;stroke:#000000"
       xlink:href="#DownArrow"
       x="0"
       y="0"
       width="100%"
       height="100%"
       transform="matrix(0.00417761,-0.44803243,0.44803243,0.00417761,93.26374,45.378398)"
       inkscape:transform-center-x="-0.18560174"
       inkscape:transform-center-y="-0.12122856" />
    <text
       xml:space="preserve"
       style="font-style:normal;font-weight:normal;font-size:4.93888855px;line-height:1.25;font-family:sans-serif;letter-spacing:0px;word-spacing:0px;fill:#000000;fill-opacity:1;stroke:none;stroke-width:0.26458332"
       x="102.65834"
       y="34.797909"
       id="text19330"><tspan
         sodipodi:role="line"
         id="tspan19328"
         x="102.65834"
         y="34.797909"
         style="stroke-width:0.26458332">backward_pass</tspan></text>
    <text
       xml:space="preserve"
       style="font-style:normal;font-weight:normal;font-size:4.93888855px;line-height:1.25;font-family:sans-serif;letter-spacing:0px;word-spacing:0px;fill:#000000;fill-opacity:1;stroke:none;stroke-width:0.26458332"
       x="102.61044"
       y="26.849564"
       id="text19330-8"><tspan
         sodipodi:role="line"
         id="tspan19328-3"
         x="102.61044"
         y="26.849564"
         style="stroke-width:0.26458332">forward_pass</tspan></text>
    <text
       xml:space="preserve"
       style="font-style:normal;font-weight:normal;font-size:4.93888855px;line-height:1.25;font-family:sans-serif;letter-spacing:0px;word-spacing:0px;fill:#000000;fill-opacity:1;stroke:none;stroke-width:0.26458332"
       x="102.65834"
       y="42.470829"
       id="text19352"><tspan
         sodipodi:role="line"
         id="tspan19350"
         x="102.65834"
         y="42.470829"
         style="stroke-width:0.26458332">parameter_gradients</tspan></text>
  </g>
</svg>
